<?xml version="1.0" encoding="UTF-8"?>
<svg id="Layer_2" data-name="Layer 2" xmlns="http://www.w3.org/2000/svg" viewBox="0 0 573.44 484.92">
  <defs>
    <style>
      .cls-1 {
        fill: #094c48;
      }

      .cls-1, .cls-2 {
        stroke-width: 0px;
      }

      .cls-2 {
        fill: #77d5a7;
      }
    </style>
  </defs>
  <g id="Layer_2-2" data-name="Layer 2">
    <g id="Layer_1-2" data-name="Layer 1-2">
      <g>
        <path class="cls-1" d="m348.7,126.59c-.95,29.95-12.63,53.37-33.71,72.4-9.09,8.21-9.01,8.3-.3,16.26,2.02,1.85,4,3.74,6.1,5.5,7.79,6.53,14.87,16.56,23.66,18.42,7.51,1.59,16.94-6.42,25.65-9.84,18.87-7.42,37.98-8.85,57.14-1.12,2.38.96,4.28,3.09,6.4,4.67-2.48,1.32-4.82,3.11-7.46,3.87-17.18,4.94-34.74,8.78-51.56,14.73-11.62,4.11-11.28,5.69-2.34,13.51,35.61,31.15,71.11,62.44,106.95,93.32,25.74,22.17,52.04,43.69,77.93,65.71,5,4.25,10.19,8.86,13.45,14.39,2.36,4,3.98,11.75,1.8,14.32-3.12,3.67-10.18,5.88-15.24,5.39-3.59-.35-7.02-5.9-9.85-9.63-2.59-3.42-3.41-8.51-6.48-11.16-58.31-50.34-116.9-100.38-175.31-150.61-17.28-14.86-17.17-15.13-35.17-1.81-6.53,4.83-12.73,10.12-19.08,15.19,6.25,5.09,12.47,10.22,18.75,15.27,23.79,19.11,41.81,41.41,40.05,74.18-1,18.61-7.46,35.15-21.18,48.19-12.2,11.59-25.03,22.21-42.42,25.49-1.8.34-2.85,4.69-4.23,7.19-2.24,4.05-3.5,9.47-6.9,11.9-7.44,5.33-13.12,2.21-14.39-6.94-.98-7.05-2.6-11.57-10.8-15.31-65.94-30.15-73.04-95.63-26.58-138.29,6.88-6.31,14.65-11.71,22.32-17.08,4.03-2.82,4.62-4.93.39-7.75-.65-.43-1.26-.93-1.91-1.37-10.65-7.2-21.31-14.39-31.96-21.59-9.78,7.67-19.85,15.01-29.29,23.08-54.1,46.24-108.09,92.61-161.92,139.16-3.18,2.75-6.01,7.23-6.64,11.28-.85,5.51-1.5,11.01-7.79,11-6.2-.02-14.31-.5-17.98-4.28-2.89-2.98-1.5-11.64.23-17.07,1.28-3.99,5.97-7.06,9.51-10.12,23.38-20.19,46.83-40.29,70.3-60.37,59.05-50.51,118.04-101.08,177.28-151.38,6.8-5.77,8.21-9.69-.35-14.42-2.36-1.31-4.55-3.12-6.44-5.06-11.38-11.73-22.47-17.89-40.7-11.19-20.38,7.48-40.4-4.67-50.14-26.1-4.01-8.83-6.44-18.4-9.17-27.76-2.41-8.25.29-11.44,9.29-11.29,17.15.28,33.29,4.21,47.8,13.78,1.24.82,2.73,1.27,4.11,1.89.02-1.71.52-3.57,0-5.09-13.56-39.73-1.14-72.8,26.09-102.07,4.53-4.87,9.34-9.46,13.95-14.25,4.17-4.34,8.21-4.8,11.24.89,9.53,17.9,25.77,28.97,40.97,41.24,22.89,18.49,34.78,42.7,35.95,70.77l-.02-.04Zm-53.35-37.45c.78,29.14-9.97,52.2-36.98,66.04-5.42,2.78-7.73,5.22-2.19,10.01,9.44,8.17,18.67,16.59,28.35,24.46,1.68,1.36,6.04,1.8,7.59.61,37.93-29.04,48.66-73.03,15.06-110.37-3.4-3.78-8.37-6.14-12.61-9.16.09,4.49.15,8.98.3,13.47.05,1.56.3,3.11.49,4.94h0Zm5.99,292.38h-.22c0,16.03.38,32.07-.15,48.08-.28,8.54,2.41,10.2,10.22,7.55,32.23-10.93,47.96-49.51,29.83-78.4-7.61-12.13-20.15-21.29-31-31.2-5.56-5.09-8.84-3.08-8.74,4.71.21,16.42.06,32.84.06,49.26Zm-20.39-1.2h.14c0-16.39-.31-32.8.13-49.18.22-8.29-2.77-9.04-8.42-4.56-7.91,6.27-16.53,12.09-22.97,19.69-25.9,30.52-15.07,74.45,21.29,89.47,6.97,2.88,10.05,1.98,9.92-6.23-.27-16.39-.08-32.79-.08-49.18h-.01Zm-6.52-298.66c-1.73-6.79-4.92-19.54-8.24-32.26-1.47-5.65-4.61-5.83-8.09-1.77-19.69,22.98-28.64,50.63-14.17,80.86,3.85,8.04,7.82,6.86,13.24,2.24,13.22-11.26,17.72-26,17.26-49.08h0Zm6.64,174.05h.13c0-3.49.14-6.99-.04-10.47-.2-3.75-.7-7.48-1.07-11.22-3.6,1.85-7.62,3.18-10.74,5.65q-22.23,17.6,2.06,34.4c2.44,1.68,5.31,2.75,7.98,4.1.56-2.84,1.44-5.65,1.61-8.51.27-4.64.07-9.3.07-13.95Zm20.19.73h-.25c-.24,5.43-.72,10.87-.51,16.28.04.94,3.8,2.93,4.48,2.46,8.26-5.7,16.26-11.77,24.33-17.75-6.23-6.05-12.44-12.12-18.69-18.14-1.12-1.08-2.37-2.01-3.57-3-3.76-3.07-5.62-1.65-5.75,2.67-.17,5.82-.04,11.64-.04,17.47h0Z"/>
        <path class="cls-1" d="m459.26,155.16c-1.57,1.28-2.92,2.61-4.49,3.61-2.63,1.67-5.65,2.83-8.06,4.76-3.51,2.81-8.68,9.27-9.58,8.69-6.72-4.37-12.65-9.99-18.55-15.52-.61-.57.13-3.57,1.12-4.61,1.56-1.64,4.27-2.21,5.78-3.88,3.34-3.7,5.47-9.14,9.49-11.44,7.03-4.02,5.77,5.55,9.61,7.51,4.42,2.26,8.65,4.9,12.85,7.56.81.51,1.07,1.88,1.83,3.32h0Z"/>
        <path class="cls-1" d="m127.71,192.5c-.87,1.59-1.3,2.61-1.95,3.45-.45.59-1.27.89-1.84,1.41-4.79,4.4-9.4,12.01-14.39,12.26-4.32.22-8.7-8.37-13.71-12.21-4.64-3.55-5.25-5.4-.14-9.25,4.78-3.6,8.42-8.7,12.56-13.14,3.96,4.05,7.79,8.24,11.92,12.1,2.18,2.03,4.88,3.5,7.55,5.37h0Z"/>
        <path class="cls-1" d="m475.69,210.7c-5.81-5.43-11.14-9.92-15.59-15.15-.6-.71,2.91-5.33,4.95-7.79,3.1-3.75,6.58-7.2,9.9-10.78,4.63,4.55,9.3,9.07,13.84,13.7.73.75,1.58,2.58,1.25,2.99-4.53,5.61-9.26,11.06-14.34,17.02h-.01Z"/>
      </g>
    </g>
    <g id="Layer_1-2-2" data-name="Layer 1-2">
      <g>
        <path class="cls-2" d="m341.57,116.18c-.95,29.95-12.63,53.37-33.71,72.4-9.09,8.21-9.01,8.3-.3,16.26,2.02,1.85,4,3.74,6.1,5.5,7.79,6.53,14.87,16.56,23.66,18.42,7.51,1.59,16.94-6.42,25.65-9.84,18.87-7.42,37.98-8.85,57.14-1.12,2.38.96,4.28,3.09,6.4,4.67-2.48,1.32-4.82,3.11-7.46,3.87-17.18,4.94-34.74,8.78-51.56,14.73-11.62,4.11-11.28,5.69-2.34,13.51,35.61,31.15,71.11,62.44,106.95,93.32,25.74,22.17,52.04,43.69,77.93,65.71,5,4.25,10.19,8.86,13.45,14.39,2.36,4,3.98,11.75,1.8,14.32-3.12,3.67-10.18,5.88-15.24,5.39-3.59-.35-7.02-5.9-9.85-9.63-2.59-3.42-3.41-8.51-6.48-11.16-58.31-50.34-116.9-100.38-175.31-150.61-17.28-14.86-17.17-15.13-35.17-1.81-6.53,4.83-12.73,10.12-19.08,15.19,6.25,5.09,12.47,10.22,18.75,15.27,23.79,19.11,41.81,41.41,40.05,74.18-1,18.61-7.46,35.15-21.18,48.19-12.2,11.59-25.03,22.21-42.42,25.49-1.8.34-2.85,4.69-4.23,7.19-2.24,4.05-3.5,9.47-6.9,11.9-7.44,5.33-13.12,2.21-14.39-6.94-.98-7.05-2.6-11.57-10.8-15.31-65.94-30.15-73.04-95.63-26.58-138.29,6.88-6.31,14.65-11.71,22.32-17.08,4.03-2.82,4.62-4.93.39-7.75-.65-.43-1.26-.93-1.91-1.37-10.65-7.2-21.31-14.39-31.96-21.59-9.78,7.67-19.85,15.01-29.29,23.08-54.1,46.24-108.09,92.61-161.92,139.16-3.18,2.75-6.01,7.23-6.64,11.28-.85,5.51-1.5,11.01-7.79,11-6.2-.02-14.31-.5-17.98-4.28-2.89-2.98-1.5-11.64.23-17.07,1.28-3.99,5.97-7.06,9.51-10.12,23.38-20.19,46.83-40.29,70.3-60.37,59.05-50.51,118.04-101.08,177.28-151.38,6.8-5.77,8.21-9.69-.35-14.42-2.36-1.31-4.55-3.12-6.44-5.06-11.38-11.73-22.47-17.89-40.7-11.19-20.38,7.48-40.4-4.67-50.14-26.1-4.01-8.83-6.44-18.4-9.17-27.76-2.41-8.25.29-11.44,9.29-11.29,17.15.28,33.29,4.21,47.8,13.78,1.24.82,2.73,1.27,4.11,1.89.02-1.71.52-3.57,0-5.09-13.56-39.73-1.14-72.8,26.09-102.07,4.53-4.87,9.34-9.46,13.95-14.25,4.17-4.34,8.21-4.8,11.24.89,9.53,17.9,25.77,28.97,40.97,41.24,22.89,18.49,34.78,42.7,35.95,70.77l-.02-.04Zm-53.35-37.45c.78,29.14-9.97,52.2-36.98,66.04-5.42,2.78-7.73,5.22-2.19,10.01,9.44,8.17,18.67,16.59,28.35,24.46,1.68,1.36,6.04,1.8,7.59.61,37.93-29.04,48.66-73.03,15.06-110.37-3.4-3.78-8.37-6.14-12.61-9.16.09,4.49.15,8.98.3,13.47.05,1.56.3,3.11.49,4.94h0Zm5.99,292.38h-.22c0,16.03.38,32.07-.15,48.08-.28,8.54,2.41,10.2,10.22,7.55,32.23-10.93,47.96-49.51,29.83-78.4-7.61-12.13-20.15-21.29-31-31.2-5.56-5.09-8.84-3.08-8.74,4.71.21,16.42.06,32.84.06,49.26Zm-20.39-1.2h.14c0-16.39-.31-32.8.13-49.18.22-8.29-2.77-9.04-8.42-4.56-7.91,6.27-16.53,12.09-22.97,19.69-25.9,30.52-15.07,74.45,21.29,89.47,6.97,2.88,10.05,1.98,9.92-6.23-.27-16.39-.08-32.79-.08-49.18h-.01Zm-6.52-298.66c-1.73-6.79-4.92-19.54-8.24-32.26-1.47-5.65-4.61-5.83-8.09-1.77-19.69,22.98-28.64,50.63-14.17,80.86,3.85,8.04,7.82,6.86,13.24,2.24,13.22-11.26,17.72-26,17.26-49.08h0Zm6.64,174.05h.13c0-3.49.14-6.99-.04-10.47-.2-3.75-.7-7.48-1.07-11.22-3.6,1.85-7.62,3.18-10.74,5.65q-22.23,17.6,2.06,34.4c2.44,1.68,5.31,2.75,7.98,4.1.56-2.84,1.44-5.65,1.61-8.51.27-4.64.07-9.3.07-13.95Zm20.19.73h-.25c-.24,5.43-.72,10.87-.51,16.28.04.94,3.8,2.93,4.48,2.46,8.26-5.7,16.26-11.77,24.33-17.75-6.23-6.05-12.44-12.12-18.69-18.14-1.12-1.08-2.37-2.01-3.57-3-3.76-3.07-5.62-1.65-5.75,2.67-.17,5.82-.04,11.64-.04,17.47h0Z"/>
        <path class="cls-2" d="m452.13,144.75c-1.57,1.28-2.92,2.61-4.49,3.61-2.63,1.67-5.65,2.83-8.06,4.76-3.51,2.81-8.68,9.27-9.58,8.69-6.72-4.37-12.65-9.99-18.55-15.52-.61-.57.13-3.57,1.12-4.61,1.56-1.64,4.27-2.21,5.78-3.88,3.34-3.7,5.47-9.14,9.49-11.44,7.03-4.02,5.77,5.55,9.61,7.51,4.42,2.26,8.65,4.9,12.85,7.56.81.51,1.07,1.88,1.83,3.32h0Z"/>
        <path class="cls-2" d="m120.58,182.09c-.87,1.59-1.3,2.61-1.95,3.45-.45.59-1.27.89-1.84,1.41-4.79,4.4-9.4,12.01-14.39,12.26-4.32.22-8.7-8.37-13.71-12.21-4.64-3.55-5.25-5.4-.14-9.25,4.78-3.6,8.42-8.7,12.56-13.14,3.96,4.05,7.79,8.24,11.92,12.1,2.18,2.03,4.88,3.5,7.55,5.37h0Z"/>
        <path class="cls-2" d="m468.56,200.29c-5.81-5.43-11.14-9.92-15.59-15.15-.6-.71,2.91-5.33,4.95-7.79,3.1-3.75,6.58-7.2,9.9-10.78,4.63,4.55,9.3,9.07,13.84,13.7.73.75,1.58,2.58,1.25,2.99-4.53,5.61-9.26,11.06-14.34,17.02h-.01Z"/>
      </g>
    </g>
  </g>
</svg>