<?xml version="1.0" encoding="UTF-8"?>
<svg id="Layer_2" data-name="Layer 2" xmlns="http://www.w3.org/2000/svg" viewBox="0 0 389.77 314.64">
  <defs>
    <style>
      .cls-1 {
        fill: #094c48;
      }

      .cls-1, .cls-2 {
        stroke-width: 0px;
      }

      .cls-2 {
        fill: #77d5a7;
      }
    </style>
  </defs>
  <g id="Layer_2-2" data-name="Layer 2">
    <g id="Layer_7" data-name="Layer 7">
      <g>
        <path class="cls-1" d="m153.53,64.41c-39.57,0-79.13-.04-118.7.05-5.23,0-10.46,1.03-15.68.94-5.14-.1-9.18-2.55-8.55-8.4.63-5.9,5.29-7.94,10.49-8.05,4.83-.1,9.67.96,14.51.96,77.98.05,155.99,1.12,233.95-.43,47.83-.96,90.04,36.02,98.22,84.03,5.13,30.13-1,58.04-14.51,84.82-4.03,7.99-4.07,8.31,5.1,8.32,4.99,0,9.97-1.36,14.96-2.06,2.24-.32,4.48-.66,6.74-.78,6.14-.32,9.19,3.84,9.3,8.82.1,4.61-2.73,8.47-8.59,8.39-11.16-.15-22.35-.54-33.47.13-4.08.25-9.05,2.21-11.81,5.11-21.36,22.48-46.68,33.01-78.24,32.42-72.51-1.35-145.05-.95-217.59-1.15-5.96-.02-11.93.75-17.88,1.33-6.57.64-10.47-2.68-11.65-8.63-.85-4.3,5.65-8.94,11.54-8.92,50.73.2,101.47.42,152.2.55,2.34,0,4.67-.88,7.01-1.35-1.67-1.43-3.34-2.88-5.03-4.29-.44-.36-1.09-.52-1.42-.95-11.22-14.11-25.39-14.66-41.95-11.47-10.95,2.11-22.75-.21-34.17-.43-24.87-.48-49.75-.77-74.62-1.47-3.71-.1-8.26-1.06-10.74-3.41-1.64-1.55-1.61-7.92.02-9.24,3.17-2.56,7.96-4.15,12.12-4.23,10.26-.21,20.54.7,30.81,1.07,1.37.05,2.76-.39,4.14-.6-.77-1.37-1.32-2.94-2.36-4.07-14.14-15.34-23.6-32.75-26.43-53.84-5.9-43.97,26.32-81.69,70.72-81.81,35.55-.1,71.11-.06,106.65.29,17.47.17,32.32,6.93,43.91,20.2,6.4,7.33,9.59,15.78,10.54,25.7.65,6.8,2.9,14.27,6.81,19.74,6.64,9.29,18.72,9.21,26.23,1.35,6.22-6.51,6.25-14.15-.57-20.13-4.7-4.12-7.82-7.99-2.33-13.45,4.94-4.91,11.36-3.84,16.13,2.53,8.29,11.07,10.28,22.86,3.47,35.36-6.39,11.74-16.77,17.45-29.77,16.68-14.95-.88-25.78-8.99-31.86-22.7-1.94-4.37-3.87-9.46-3.48-14.02,1.64-19.51-19.66-36.2-39.44-36.16-25.52.06-51.03-.07-76.55-.07-9.75,0-19.5.01-29.24.16-35.04.52-58.76,26.69-56.29,61.63,2.14,30.39,26.93,67.31,70.55,65.57,7.71-.31,15.44-.76,23.11-1.65,4.12-.48,6.25-1.72,3.34-7.15-8.31-15.54-8.97-31.64-.91-47.82,11.48-23.07,38.39-32.1,61.39-20.38,22.86,11.65,32.22,41.26,20.19,63.42-7.49,13.8-19.46,21.31-34.21,25.19-1.76.46-3.39,1.44-5.08,2.18,1.28,1.47,2.31,3.3,3.87,4.34,11.49,7.69,23.32,15.45,37.53,15.85,18.53.52,37.34,1.23,55.61-1.22,20.31-2.73,34.94-16.66,46.85-32.55,19.62-26.18,29.47-55.55,25.5-88.56-5.33-44.2-40.68-75.36-85.14-75.46-19.21-.04-38.42-.03-57.63-.04h-57.63v-.19Zm-2.9,129.51c1.9,5.61,3.78,11.22,5.69,16.82,1.74,5.1,4.99,4.41,7.42,1.13,4.03-5.44,7.44-11.35,10.95-17.16,2.3-3.81,3.57-9.52,9.73-7,5.49,2.25,7.96,7.21,4.91,12.67-4.27,7.66-9.49,14.79-14.26,22.17-.66,1.03-1.1,2.19-1.65,3.3,1.09.2,2.28.79,3.25.54,6.87-1.81,14.19-2.79,20.42-5.93,14.12-7.11,20.43-23.34,15.5-37.04-5.13-14.26-20.23-23.23-34.76-20.64-14.97,2.67-26.09,15.76-27.23,31.13h.03Z"/>
        <path class="cls-1" d="m195.69,298.12c56.73,0,113.46.02,170.2-.06,3.67,0,7.5-1.71,10.96-1.05,4.03.77,8.16,2.72,11.37,5.27,1.49,1.18,2.03,6.65,1.07,7.3-3.53,2.37-7.75,4.26-11.94,4.93-3.79.6-7.87-1-11.82-1-108.88-.07-217.76-.07-326.64-.01-4.84,0-9.7.41-14.51.99-6.94.85-13.84-2.6-14.45-7.54-.63-5.13,5.11-9.08,13.01-9.07,57.58.02,115.17,0,172.75,0v.24Z"/>
        <path class="cls-1" d="m23.87,13.27h258.66c22.35,0,44.7.08,67.05-.08,9.43-.07,18.87-1.08,28.27-.74,3.47.12,8.13,2.07,9.85,4.73,1.38,2.14.28,7.78-1.77,9.74-2.27,2.17-6.83,2.41-10.43,2.58-3.32.16-6.69-1.35-10.03-1.35-108.3-.07-216.61-.08-324.91.03-4.78,0-9.61,1.81-14.34,1.5-4.42-.29-9.18-1.54-12.88-3.84-1.63-1.01-2.4-6.92-1.08-8.4,2.67-3.02,7.03-4.53,10.69-6.66.31.83.61,1.66.92,2.49Z"/>
        <path class="cls-1" d="m379.42,280.44c-3.4-.92-5.07-1.26-6.66-1.81-4.67-1.62-11.48-1.9-10.56-8.8.91-6.77,7.18-8.43,13.14-8.2,4.02.15,8.64.75,11.73,2.93,1.86,1.31,2.82,7.07,1.51,9.02-2.19,3.24-6.53,5.03-9.16,6.87h0Z"/>
      </g>
    </g>
    <g id="Layer_7-2" data-name="Layer 7">
      <g>
        <path class="cls-2" d="m143.65,53.63c-39.57,0-79.13-.04-118.7.05-5.23,0-10.46,1.03-15.68.94-5.14-.1-9.18-2.55-8.55-8.4.63-5.9,5.29-7.94,10.49-8.05,4.83-.1,9.67.96,14.51.96,77.98.05,155.99,1.12,233.95-.43,47.83-.96,90.04,36.02,98.22,84.03,5.13,30.13-1,58.04-14.51,84.82-4.03,7.99-4.07,8.31,5.1,8.32,4.99,0,9.97-1.36,14.96-2.06,2.24-.32,4.48-.66,6.74-.78,6.14-.32,9.19,3.84,9.3,8.82.1,4.61-2.73,8.47-8.59,8.39-11.16-.15-22.35-.54-33.47.13-4.08.25-9.05,2.21-11.81,5.11-21.36,22.48-46.68,33.01-78.24,32.42-72.51-1.35-145.05-.95-217.59-1.15-5.96-.02-11.93.75-17.88,1.33-6.57.64-10.47-2.68-11.65-8.63-.85-4.3,5.65-8.94,11.54-8.92,50.73.2,101.47.42,152.2.55,2.34,0,4.67-.88,7.01-1.35-1.67-1.43-3.34-2.88-5.03-4.29-.44-.36-1.09-.52-1.42-.95-11.22-14.11-25.39-14.66-41.95-11.47-10.95,2.11-22.75-.21-34.17-.43-24.87-.48-49.75-.77-74.62-1.47-3.71-.1-8.26-1.06-10.74-3.41-1.64-1.55-1.61-7.92.02-9.24,3.17-2.56,7.96-4.15,12.12-4.23,10.26-.21,20.54.7,30.81,1.07,1.37.05,2.76-.39,4.14-.6-.77-1.37-1.32-2.94-2.36-4.07-14.14-15.34-23.6-32.75-26.43-53.84-5.9-43.97,26.32-81.69,70.72-81.81,35.55-.1,71.11-.06,106.65.29,17.47.17,32.32,6.93,43.91,20.2,6.4,7.33,9.59,15.78,10.54,25.7.65,6.8,2.9,14.27,6.81,19.74,6.64,9.29,18.72,9.21,26.23,1.35,6.22-6.51,6.25-14.15-.57-20.13-4.7-4.12-7.82-7.99-2.33-13.45,4.94-4.91,11.36-3.84,16.13,2.53,8.29,11.07,10.28,22.86,3.47,35.36-6.39,11.74-16.77,17.45-29.77,16.68-14.95-.88-25.78-8.99-31.86-22.7-1.94-4.37-3.87-9.46-3.48-14.02,1.64-19.51-19.66-36.2-39.44-36.16-25.52.06-51.03-.07-76.55-.07-9.75,0-19.5.01-29.24.16-35.04.52-58.76,26.69-56.29,61.63,2.14,30.39,26.93,67.31,70.55,65.57,7.71-.31,15.44-.76,23.11-1.65,4.12-.48,6.25-1.72,3.34-7.15-8.31-15.54-8.97-31.64-.91-47.82,11.48-23.07,38.39-32.1,61.39-20.38,22.86,11.65,32.22,41.26,20.19,63.42-7.49,13.8-19.46,21.31-34.21,25.19-1.76.46-3.39,1.44-5.08,2.18,1.28,1.47,2.31,3.3,3.87,4.34,11.49,7.69,23.32,15.45,37.53,15.85,18.53.52,37.34,1.23,55.61-1.22,20.31-2.73,34.94-16.66,46.85-32.55,19.62-26.18,29.47-55.55,25.5-88.56-5.33-44.2-40.68-75.36-85.14-75.46-19.21-.04-38.42-.03-57.63-.04h-57.63v-.19Zm-2.9,129.51c1.9,5.61,3.78,11.22,5.69,16.82,1.74,5.1,4.99,4.41,7.42,1.13,4.03-5.44,7.44-11.35,10.95-17.16,2.3-3.81,3.57-9.52,9.73-7,5.49,2.25,7.96,7.21,4.91,12.67-4.27,7.66-9.49,14.79-14.26,22.17-.66,1.03-1.1,2.19-1.65,3.3,1.09.2,2.28.79,3.25.54,6.87-1.81,14.19-2.79,20.42-5.93,14.12-7.11,20.43-23.34,15.5-37.04-5.13-14.26-20.23-23.23-34.76-20.64-14.97,2.67-26.09,15.76-27.23,31.13h.03Z"/>
        <path class="cls-2" d="m185.81,287.34c56.73,0,113.46.02,170.2-.06,3.67,0,7.5-1.71,10.96-1.05,4.03.77,8.16,2.72,11.37,5.27,1.49,1.18,2.03,6.65,1.07,7.3-3.53,2.37-7.75,4.26-11.94,4.93-3.79.6-7.87-1-11.82-1-108.88-.07-217.76-.07-326.64-.01-4.84,0-9.7.41-14.51.99-6.94.85-13.84-2.6-14.45-7.54-.63-5.13,5.11-9.08,13.01-9.07,57.58.02,115.17,0,172.75,0v.24Z"/>
        <path class="cls-2" d="m13.99,2.49h258.66c22.35,0,44.7.08,67.05-.08,9.43-.07,18.87-1.08,28.27-.74,3.47.12,8.13,2.07,9.85,4.73,1.38,2.14.28,7.78-1.77,9.74-2.27,2.17-6.83,2.41-10.43,2.58-3.32.16-6.69-1.35-10.03-1.35-108.3-.07-216.61-.08-324.91.03-4.78,0-9.61,1.81-14.34,1.5-4.42-.29-9.18-1.54-12.88-3.84-1.63-1.01-2.4-6.92-1.08-8.4C5.05,3.64,9.41,2.13,13.07,0c.31.83.61,1.66.92,2.49Z"/>
        <path class="cls-2" d="m369.54,269.66c-3.4-.92-5.07-1.26-6.66-1.81-4.67-1.62-11.48-1.9-10.56-8.8.91-6.77,7.18-8.43,13.14-8.2,4.02.15,8.64.75,11.73,2.93,1.86,1.31,2.82,7.07,1.51,9.02-2.19,3.24-6.53,5.03-9.16,6.87h0Z"/>
      </g>
    </g>
  </g>
</svg>