<?xml version="1.0" encoding="UTF-8"?>
<svg id="Layer_2" data-name="Layer 2" xmlns="http://www.w3.org/2000/svg" viewBox="0 0 447.19 373.2">
  <defs>
    <style>
      .cls-1 {
        fill: #094c48;
      }

      .cls-1, .cls-2 {
        stroke-width: 0px;
      }

      .cls-2 {
        fill: #77d5a7;
      }
    </style>
  </defs>
  <g id="Layer_2-2" data-name="Layer 2">
    <g id="Layer_2-2" data-name="Layer 2-2">
      <path class="cls-1" d="m287.38,80.25c0-7.93-.7-14.13.12-20.11,3.14-22.78,16.11-37.58,37.87-44.69,25.38-8.3,50.87-4.67,76.3-.38,2.02.34,3.75,2.34,5.85,3.72-18.84,48.6-42.82,89.67-103.38,79.97,18.11,19.3,35.78,38.84,54.25,57.6,22.09,22.43,45.06,43.99,67.26,66.31,14.69,14.77,22.84,32.47,21.37,53.93-.52,7.65-.07,15.36-.24,23.04-.76,34.4-24.14,62.91-56.64,69.17-34.75,6.69-69.69-10.32-82.67-41.75-3.66-8.86-3.68-19.4-4.42-29.24-1.91-25.34-20.58-43.13-45.22-42.44-22.34.63-41.59,20.33-41.21,44.22.32,19.65-2.79,37.48-17.13,51.9-12.81,12.88-28.36,19.32-46.54,19.35-39.16.06-78.32.11-117.48.24-3.81.01-7.99-.44-11.34.94-8.9,3.66-12.61-1.81-14.1-8.37-1.88-8.29,3.5-13.02,11.25-14.26,4.05-.65,8.36.47,12.55.5,24.3.2,40.49-15.22,41.28-39.65.34-10.36.67-20.82-.36-31.09-2.4-23.89,7.36-42.7,23.49-58.83,32.85-32.85,65.97-65.43,99.02-98.07,6.28-6.2,12.86-12.09,19.14-18.29,16.39-16.2,35.87-24.57,59.09-23.74,3.38.12,6.77.02,11.88.02h0ZM82.21,349.97c24.01,0,45.35.02,66.69,0,30.67-.03,46.68-16.81,48.15-47.82.57-11.93,3.04-24.76,8.37-35.29,13.72-27.09,41.13-38.29,69.8-30.93,30.04,7.71,48.26,31.73,48.89,64.44.47,24.55,11.1,40.01,31.85,46.34,23.67,7.21,48.13-.38,60.57-18.8,16.87-24.97,13.21-72.83-8.16-93.94-38.52-38.04-77.3-75.82-116.52-113.14-23.95-22.79-39.65-22.47-63.38.43-38.4,37.05-76.54,74.38-114.56,111.82-12.52,12.33-18.85,27.09-18.66,45.4.25,23.78,5.19,48.62-13.05,71.49h0ZM316.15,77.05c27.48,4.01,56.12-18.23,59.69-43.81-27.06-6.39-55.89,2.65-61.69,20.33,4.69-3.41,8.49-6.53,12.64-9.09,5.99-3.7,13.23-5.87,16.46,2.05,1.35,3.3-2.39,10.16-5.7,13.55-5.88,6.02-13.2,10.64-21.39,16.98h0Z"/>
    </g>
    <g id="Layer_2-2-2" data-name="Layer 2-2">
      <path class="cls-2" d="m277.73,69.79c0-7.93-.7-14.13.12-20.11,3.14-22.78,16.11-37.58,37.87-44.69,25.38-8.3,50.87-4.67,76.3-.38,2.02.34,3.75,2.34,5.85,3.72-18.84,48.6-42.82,89.67-103.38,79.97,18.11,19.3,35.78,38.84,54.25,57.6,22.09,22.43,45.06,43.99,67.26,66.31,14.69,14.77,22.84,32.47,21.37,53.93-.52,7.65-.07,15.36-.24,23.04-.76,34.4-24.14,62.91-56.64,69.17-34.75,6.69-69.69-10.32-82.67-41.75-3.66-8.86-3.68-19.4-4.42-29.24-1.91-25.34-20.58-43.13-45.22-42.44-22.34.63-41.59,20.33-41.21,44.22.32,19.65-2.79,37.48-17.13,51.9-12.81,12.88-28.36,19.32-46.54,19.35-39.16.06-78.32.11-117.48.24-3.81.01-7.99-.44-11.34.94-8.9,3.66-12.61-1.81-14.1-8.37-1.88-8.29,3.5-13.02,11.25-14.26,4.05-.65,8.36.47,12.55.5,24.3.2,40.49-15.22,41.28-39.65.34-10.36.67-20.82-.36-31.09-2.4-23.89,7.36-42.7,23.49-58.83,32.85-32.85,65.97-65.43,99.02-98.07,6.28-6.2,12.86-12.09,19.14-18.29,16.39-16.2,35.87-24.57,59.09-23.74,3.38.12,6.77.02,11.88.02h0ZM72.56,339.51c24.01,0,45.35.02,66.69,0,30.67-.03,46.68-16.81,48.15-47.82.57-11.93,3.04-24.76,8.37-35.29,13.72-27.09,41.13-38.29,69.8-30.93,30.04,7.71,48.26,31.73,48.89,64.44.47,24.55,11.1,40.01,31.85,46.34,23.67,7.21,48.13-.38,60.57-18.8,16.87-24.97,13.21-72.83-8.16-93.94-38.52-38.04-77.3-75.82-116.52-113.14-23.95-22.79-39.65-22.47-63.38.43-38.4,37.05-76.54,74.38-114.56,111.82-12.52,12.33-18.85,27.09-18.66,45.4.25,23.78,5.19,48.62-13.05,71.49h0ZM306.5,66.59c27.48,4.01,56.12-18.23,59.69-43.81-27.06-6.39-55.89,2.65-61.69,20.33,4.69-3.41,8.49-6.53,12.64-9.09,5.99-3.7,13.23-5.87,16.46,2.05,1.35,3.3-2.39,10.16-5.7,13.55-5.88,6.02-13.2,10.64-21.39,16.98h0Z"/>
    </g>
  </g>
</svg>