<?xml version="1.0" encoding="UTF-8"?>
<svg id="Layer_2" data-name="Layer 2" xmlns="http://www.w3.org/2000/svg" viewBox="0 0 384.62 469.6">
  <defs>
    <style>
      .cls-1 {
        fill: #094c48;
      }

      .cls-1, .cls-2 {
        stroke-width: 0px;
      }

      .cls-2 {
        fill: #77d5a7;
      }
    </style>
  </defs>
  <g id="Layer_2-2" data-name="Layer 2">
    <g id="Layer_3" data-name="Layer 3">
      <g>
        <path class="cls-1" d="m346.15,202.32c12.29,10.63,23.26,18.44,31.91,28.29,4.34,4.94,6.12,13.6,6.17,20.61.43,58.23-.34,116.47.39,174.69.29,22.88-25.3,43.91-45.11,43.68-92.92-1.09-185.87-.42-278.8-.42-29.69,0-48.72-17.55-48.94-47.47-.43-57.45-.2-114.93.79-172.37.34-19.5,12.03-32.83,30.36-39.18,6.3-2.18,7.97-5.3,7.83-11.42-.43-19.16-1.28-38.37-.22-57.47.63-11.33,3.42-22.89,7.22-33.65,13.92-39.4,39.24-69.71,78.13-85.53C191.62-.6,245.53,4.58,293.2,42.68c32.43,25.92,51.76,60.4,52.86,103.15.52,20.1.09,40.22.09,56.49Zm-147.04,27.79v-.6H59.67c-18.7,0-28.65,8.78-28.68,26.58-.08,55.05.03,110.11.51,165.16.16,18.43,11.58,28.89,29.65,28.88,91.19-.05,182.38-.06,273.57-.13,21.35-.02,30.98-9.81,30.98-31.39,0-53.28-.03-106.56-.07-159.84-.01-20.38-8.44-28.65-29.2-28.66-45.77-.02-91.55,0-137.32,0h0Zm75.14-20.65c0-16.4-.96-31.65.18-46.74,3.27-43.35-36.59-78.73-75.81-79.03-39.4-.3-71.94,30.78-75.85,71.35-1.39,14.42.17,29.11-.37,43.65-.31,8.31,2.3,11.03,10.87,10.96,46.41-.39,92.82-.19,140.98-.19h0Zm53.48-2.19c0-16.71.05-33.67,0-50.63-.23-62.4-42.17-112.71-104.76-125.68-58.77-12.18-118.68,19.19-143.15,74.45-14.14,31.94-9.64,65.48-9.46,98.67,0,1.64,3.38,4.54,5.32,4.66,8.39.52,16.82.22,26.14.22.23-4.96.47-8.75.56-12.54.35-15.24-.36-30.59,1.15-45.71,4.72-47.18,40.99-82.07,88.25-85.95,44.94-3.68,87.5,25.8,98.86,70.37,3.79,14.86,3.93,30.85,4.25,46.35.6,29.54.16,29.55,29.99,27.08.32-.03.63-.27,2.84-1.3h.01Z"/>
        <path class="cls-1" d="m198.2,335.59c-36.87,0-73.73-.05-110.6.05-6.91.02-14.01-.86-13.98-9.13.03-8.15,6.49-10.56,14.27-10.56,74.09.01,148.17-.14,222.26-.3,7.09-.02,13.58,1.66,13.43,9.9-.14,7.12-5.48,9.7-12.65,9.66-37.58-.2-75.15-.09-112.73-.09v.48h0Z"/>
        <path class="cls-1" d="m199,402.79c-37.22,0-74.44-.04-111.67.04-7.12.02-13.58-1.83-13.71-9.78-.13-7.97,6.35-10.23,13.43-10.22,74.44.05,148.89.11,223.33.16,6.83,0,13.94,1.1,13.95,9.39.02,7.96-6.42,9.79-13.66,9.76-37.22-.15-74.45-.07-111.67-.07v.72h0Z"/>
      </g>
    </g>
    <g id="Layer_3-2" data-name="Layer 3">
      <g>
        <path class="cls-2" d="m334.59,193.76c12.29,10.63,23.26,18.44,31.91,28.29,4.34,4.94,6.12,13.6,6.17,20.61.43,58.23-.34,116.47.39,174.69.29,22.88-25.3,43.91-45.11,43.68-92.92-1.09-185.87-.42-278.8-.42-29.69,0-48.72-17.55-48.94-47.47C-.22,355.69,0,298.21,1,240.77c.34-19.5,12.03-32.83,30.36-39.18,6.3-2.18,7.97-5.3,7.83-11.42-.43-19.16-1.28-38.37-.22-57.47.63-11.33,3.42-22.89,7.22-33.65C60.11,59.65,85.43,29.34,124.32,13.52c55.74-22.68,109.65-17.5,157.32,20.6,32.43,25.92,51.76,60.4,52.86,103.15.52,20.1.09,40.22.09,56.49Zm-147.04,27.79v-.6H48.11c-18.7,0-28.65,8.78-28.68,26.58-.08,55.05.03,110.11.51,165.16.16,18.43,11.58,28.89,29.65,28.88,91.19-.05,182.38-.06,273.57-.13,21.35-.02,30.98-9.81,30.98-31.39,0-53.28-.03-106.56-.07-159.84-.01-20.38-8.44-28.65-29.2-28.66-45.77-.02-91.55,0-137.32,0h0Zm75.14-20.65c0-16.4-.96-31.65.18-46.74,3.27-43.35-36.59-78.73-75.81-79.03-39.4-.3-71.94,30.78-75.85,71.35-1.39,14.42.17,29.11-.37,43.65-.31,8.31,2.3,11.03,10.87,10.96,46.41-.39,92.82-.19,140.98-.19h0Zm53.48-2.19c0-16.71.05-33.67,0-50.63-.23-62.4-42.17-112.71-104.76-125.68-58.77-12.18-118.68,19.19-143.15,74.45-14.14,31.94-9.64,65.48-9.46,98.67,0,1.64,3.38,4.54,5.32,4.66,8.39.52,16.82.22,26.14.22.23-4.96.47-8.75.56-12.54.35-15.24-.36-30.59,1.15-45.71,4.72-47.18,40.99-82.07,88.25-85.95,44.94-3.68,87.5,25.8,98.86,70.37,3.79,14.86,3.93,30.85,4.25,46.35.6,29.54.16,29.55,29.99,27.08.32-.03.63-.27,2.84-1.3h.01Z"/>
        <path class="cls-2" d="m186.64,327.03c-36.87,0-73.73-.05-110.6.05-6.91.02-14.01-.86-13.98-9.13.03-8.15,6.49-10.56,14.27-10.56,74.09.01,148.17-.14,222.26-.3,7.09-.02,13.58,1.66,13.43,9.9-.14,7.12-5.48,9.7-12.65,9.66-37.58-.2-75.15-.09-112.73-.09v.48h0Z"/>
        <path class="cls-2" d="m187.44,394.23c-37.22,0-74.44-.04-111.67.04-7.12.02-13.58-1.83-13.71-9.78-.13-7.97,6.35-10.23,13.43-10.22,74.44.05,148.89.11,223.33.16,6.83,0,13.94,1.1,13.95,9.39.02,7.96-6.42,9.79-13.66,9.76-37.22-.15-74.45-.07-111.67-.07v.72h0Z"/>
      </g>
    </g>
  </g>
</svg>