<?xml version="1.0" encoding="UTF-8"?>
<svg id="Layer_2" data-name="Layer 2" xmlns="http://www.w3.org/2000/svg" viewBox="0 0 355.71 388.25">
  <defs>
    <style>
      .cls-1 {
        fill: #094c48;
      }

      .cls-1, .cls-2 {
        stroke-width: 0px;
      }

      .cls-2 {
        fill: #77d5a7;
      }
    </style>
  </defs>
  <g id="Layer_2-2" data-name="Layer 2">
    <g id="Layer_5" data-name="Layer 5">
      <path class="cls-1" d="m193.56,377.84c-3.01,3.69-6.86,10.87-8.85,10.38-4.87-1.19-8.88-5.92-13.23-9.22.49-.89.98-1.78,1.46-2.67-11.05,0-22.13.47-33.16-.09-35.95-1.8-67.86-13.19-92.26-40.98-13.96-15.9-21.93-34.46-22.2-55.89-.15-12.19-1.16-24.48,4.32-36.1.91-1.94.18-5.09-.66-7.35-5.93-15.92-13.71-31.36-17.66-47.74-3-12.45-2.5-26.16-1.34-39.11,2.76-30.87,12.85-59.74,30.21-85.32C60.83,33.36,90.47,15.06,126.45,9.14c17.2-2.83,35.17-1.03,52.78-1.34,12.22-.22,24.48-1.26,36.64-.55,25.26,1.47,49.62,6.62,71.55,20.34,29.35,18.37,47.86,44.18,58.51,77.3,6.68,20.77,10.06,41.32,9.76,62.81-.32,23.02-6.21,44.54-16.35,65.17-2.03,4.13-2.55,10.09-1.35,14.55,13.1,48.37-7.18,90.38-50.38,113.07-28.5,14.97-59.04,17.18-90.29,15.89-1.44-.06-2.89-.05-4.34-.03-.26,0-.52.24-.78.37.45.38.9.75,1.35,1.13h0Zm-17.75-107.95c0-6.23-.27-13.71.1-21.16.24-4.85-1.42-6.78-6.14-8.57-17.86-6.78-26.09-28.62-18.17-46.55,8.18-18.53,27.62-26.11,45.73-17.72,12.84,5.95,19.98,16.63,20.51,30.25.57,14.81-7.02,25.99-20,33.52-2.64,1.53-6.01,4.41-6.27,6.96-.82,7.9-.3,15.94-.3,22.47,14.21-9.36,28.74-18.2,42.46-28.16,13.81-10.03,26.88-21.1,40.15-31.86,5.2-4.22,4.95-7.67-1.53-10.93-27.59-13.85-54.92-28.22-82.65-41.77-3.71-1.81-9.88-1.52-13.7.32-23.88,11.51-47.45,23.66-71.02,35.79-5.86,3.02-11.35,6.76-17.52,10.49,11.62,16.18,26.29,26.82,42.04,36.48,15.55,9.54,30.53,20.02,46.32,30.45h-.01Zm146.01-12.18c-9.12,10.44-16.92,19.84-25.23,28.77-19.19,20.61-41.89,33.65-71.06,34.27-15.44.33-34.22,15.93-33.45,39.55,21.97-1.54,44.35-.83,65.7-5.19,26.82-5.47,47.05-22.73,60.07-46.98,8.31-15.47,11.23-32.08,3.96-50.41h.01Zm-123.14-114.85c15.28,6.75,28.34,12.22,41.09,18.31,4.71,2.25,7.74,1.48,11.74-1.56,40.7-30.92,41.41-95.32-11.06-129.43-9.13-5.94-19.91-8.47-32.84-4.89,21.7,16.45,35.99,35.82,36.8,62.31.91,29.71-19.79,43.24-45.74,55.25h0Zm-155.14,114.01c-4.89,18.9-2.58,35.4,5.32,51.14,20.41,40.69,77.72,63.11,126.1,49.57-3.5-19.83-17.25-35.08-36.59-36.64-31.63-2.55-55.03-18.56-75.04-41.43-6.24-7.12-12.46-14.26-19.78-22.65h-.01ZM160.12,24.35c-15.54-.89-28.07.29-39.19,8.1-40.47,28.44-46.47,87.11-12.58,122.97,10.26,10.85,10.61,10.95,23.74,4.56,9.43-4.6,18.83-9.27,28.2-14.01,1.59-.8,2.93-2.09,5.27-3.81-24.11-11.84-44.74-25.65-44.07-55.25.61-27.02,15.5-46.12,38.63-62.56Zm31.9,295.97c13.09-13.32,28.92-15.44,45.34-17.35,8.87-1.03,18.79-4.28,25.55-9.81,13.86-11.33,26.79-24.11,38.49-37.69,15.3-17.75,14.48-18.19-1.69-35.86-4.73-5.17-7.82-6.17-13.08-.4-15.21,16.69-32.91,30.06-53,40.81-10.78,5.77-20.52,14.4-28.97,23.4-8.85,9.43-15.66,20.82-12.65,36.9h0Zm-118.05-108.01c-7.31,9.29-13.5,16.85-19.22,24.76-.87,1.2-.21,4.63.96,5.99,13,15.19,25.15,31.36,39.83,44.75,8.11,7.4,20.14,12.36,31.14,14.32,16.83,3,33.23,5.47,46.72,16.99.22.19,1.01-.28,3.08-.93-1.63-6.53-2.4-13.56-5.1-19.73-7.96-18.19-23.23-29.12-39.65-39.18-13.57-8.32-26.52-17.73-39.11-27.49-6.34-4.91-11.28-11.65-18.65-19.48h0ZM276.81,42.23c15.87,22.09,22.38,44.51,18.99,69.35-3.36,24.63-14.95,44.88-35.22,61.24,10.87,6.42,20.51,12.1,30.32,17.9,14.61-16.22,25.73-33.44,32.01-54.07,13.61-44.7-15.63-78.96-46.1-94.42ZM103.77,174.24c-38.21-38.92-43.86-82.31-16.16-131.96-25.42,14.89-42.46,33.92-46.14,60.6-4.84,35.08,10.91,63.5,34.22,87.76,9.73-5.68,18.44-10.76,28.08-16.39h0Zm111.1-118.99c.48-.94.96-1.88,1.44-2.82-8.33-6.11-16.49-12.48-25.06-18.23-5.52-3.7-11.31-3.1-17.26.31-13.5,7.75-24.11,18.08-31.4,31.92-13.13,24.93-2.98,51.07,32.92,60.14,0-11.74-.16-23.39.04-35.03.32-19.24,11.85-32.33,30.89-35.35,2.79-.44,5.62-.64,8.44-.95h-.01Zm-23.81,74.1c8.21-4.55,14.62-7.9,20.84-11.59,10.62-6.29,15.72-16.04,16.89-28.07.78-8.08-3.41-14.6-10.77-16.97-12.16-3.9-25.7,3.83-26.73,16.53-1.03,12.69-.23,25.52-.23,40.1ZM42.13,224.27c7.42-8.13,13.96-15.31,19.69-21.59-11.91-19.42-23.35-38.06-35.02-57.08-4.48,27.59.3,53.37,15.33,78.67Zm263.4-22.74c5.41,6.51,11.43,13.76,18.13,21.82,15.67-24.53,19.35-49.69,15.68-77.31-11.48,18.83-22.29,36.59-33.81,55.49h0Zm-141.29,6.53c-.1,9.66,7.73,17.71,17.46,17.95,10.77.27,19.78-8.45,19.63-18.98-.14-9.55-8.14-17.67-17.75-18-10.91-.38-19.22,7.81-19.34,19.03h0Z"/>
    </g>
    <g id="Layer_5-2" data-name="Layer 5">
      <path class="cls-2" d="m184.49,370.83c-3.01,3.69-6.86,10.87-8.85,10.38-4.87-1.19-8.88-5.92-13.23-9.22.49-.89.98-1.78,1.46-2.67-11.05,0-22.13.47-33.16-.09-35.95-1.8-67.86-13.19-92.26-40.98-13.96-15.9-21.93-34.46-22.2-55.89-.15-12.19-1.16-24.48,4.32-36.1.91-1.94.18-5.09-.66-7.35-5.93-15.92-13.71-31.36-17.66-47.74-3-12.45-2.5-26.16-1.34-39.11,2.76-30.87,12.85-59.74,30.21-85.32C51.76,26.35,81.4,8.05,117.38,2.13c17.2-2.83,35.17-1.03,52.78-1.34,12.22-.22,24.48-1.26,36.64-.55,25.26,1.47,49.62,6.62,71.55,20.34,29.35,18.37,47.86,44.18,58.51,77.3,6.68,20.77,10.06,41.32,9.76,62.81-.32,23.02-6.21,44.54-16.35,65.17-2.03,4.13-2.55,10.09-1.35,14.55,13.1,48.37-7.18,90.38-50.38,113.07-28.5,14.97-59.04,17.18-90.29,15.89-1.44-.06-2.89-.05-4.34-.03-.26,0-.52.24-.78.37.45.38.9.75,1.35,1.13h0Zm-17.75-107.95c0-6.23-.27-13.71.1-21.16.24-4.85-1.42-6.78-6.14-8.57-17.86-6.78-26.09-28.62-18.17-46.55,8.18-18.53,27.62-26.11,45.73-17.72,12.84,5.95,19.98,16.63,20.51,30.25.57,14.81-7.02,25.99-20,33.52-2.64,1.53-6.01,4.41-6.27,6.96-.82,7.9-.3,15.94-.3,22.47,14.21-9.36,28.74-18.2,42.46-28.16,13.81-10.03,26.88-21.1,40.15-31.86,5.2-4.22,4.95-7.67-1.53-10.93-27.59-13.85-54.92-28.22-82.65-41.77-3.71-1.81-9.88-1.52-13.7.32-23.88,11.51-47.45,23.66-71.02,35.79-5.86,3.02-11.35,6.76-17.52,10.49,11.62,16.18,26.29,26.82,42.04,36.48,15.55,9.54,30.53,20.02,46.32,30.45h-.01Zm146.01-12.18c-9.12,10.44-16.92,19.84-25.23,28.77-19.19,20.61-41.89,33.65-71.06,34.27-15.44.33-34.22,15.93-33.45,39.55,21.97-1.54,44.35-.83,65.7-5.19,26.82-5.47,47.05-22.73,60.07-46.98,8.31-15.47,11.23-32.08,3.96-50.41h.01Zm-123.14-114.85c15.28,6.75,28.34,12.22,41.09,18.31,4.71,2.25,7.74,1.48,11.74-1.56,40.7-30.92,41.41-95.32-11.06-129.43-9.13-5.94-19.91-8.47-32.84-4.89,21.7,16.45,35.99,35.82,36.8,62.31.91,29.71-19.79,43.24-45.74,55.25h0ZM34.47,249.86c-4.89,18.9-2.58,35.4,5.32,51.14,20.41,40.69,77.72,63.11,126.1,49.57-3.5-19.83-17.25-35.08-36.59-36.64-31.63-2.55-55.03-18.56-75.04-41.43-6.24-7.12-12.46-14.26-19.78-22.65h-.01ZM151.05,17.34c-15.54-.89-28.07.29-39.19,8.1-40.47,28.44-46.47,87.11-12.58,122.97,10.26,10.85,10.61,10.95,23.74,4.56,9.43-4.6,18.83-9.27,28.2-14.01,1.59-.8,2.93-2.09,5.27-3.81-24.11-11.84-44.74-25.65-44.07-55.25.61-27.02,15.5-46.12,38.63-62.56Zm31.9,295.97c13.09-13.32,28.92-15.44,45.34-17.35,8.87-1.03,18.79-4.28,25.55-9.81,13.86-11.33,26.79-24.11,38.49-37.69,15.3-17.75,14.48-18.19-1.69-35.86-4.73-5.17-7.82-6.17-13.08-.4-15.21,16.69-32.91,30.06-53,40.81-10.78,5.77-20.52,14.4-28.97,23.4-8.85,9.43-15.66,20.82-12.65,36.9h0Zm-118.05-108.01c-7.31,9.29-13.5,16.85-19.22,24.76-.87,1.2-.21,4.63.96,5.99,13,15.19,25.15,31.36,39.83,44.75,8.11,7.4,20.14,12.36,31.14,14.32,16.83,3,33.23,5.47,46.72,16.99.22.19,1.01-.28,3.08-.93-1.63-6.53-2.4-13.56-5.1-19.73-7.96-18.19-23.23-29.12-39.65-39.18-13.57-8.32-26.52-17.73-39.11-27.49-6.34-4.91-11.28-11.65-18.65-19.48h0ZM267.74,35.22c15.87,22.09,22.38,44.51,18.99,69.35-3.36,24.63-14.95,44.88-35.22,61.24,10.87,6.42,20.51,12.1,30.32,17.9,14.61-16.22,25.73-33.44,32.01-54.07,13.61-44.7-15.63-78.96-46.1-94.42ZM94.7,167.23c-38.21-38.92-43.86-82.31-16.16-131.96-25.42,14.89-42.46,33.92-46.14,60.6-4.84,35.08,10.91,63.5,34.22,87.76,9.73-5.68,18.44-10.76,28.08-16.39h0Zm111.1-118.99c.48-.94.96-1.88,1.44-2.82-8.33-6.11-16.49-12.48-25.06-18.23-5.52-3.7-11.31-3.1-17.26.31-13.5,7.75-24.11,18.08-31.4,31.92-13.13,24.93-2.98,51.07,32.92,60.14,0-11.74-.16-23.39.04-35.03.32-19.24,11.85-32.33,30.89-35.35,2.79-.44,5.62-.64,8.44-.95h-.01Zm-23.81,74.1c8.21-4.55,14.62-7.9,20.84-11.59,10.62-6.29,15.72-16.04,16.89-28.07.78-8.08-3.41-14.6-10.77-16.97-12.16-3.9-25.7,3.83-26.73,16.53-1.03,12.69-.23,25.52-.23,40.1ZM33.06,217.26c7.42-8.13,13.96-15.31,19.69-21.59-11.91-19.42-23.35-38.06-35.02-57.08-4.48,27.59.3,53.37,15.33,78.67Zm263.4-22.74c5.41,6.51,11.43,13.76,18.13,21.82,15.67-24.53,19.35-49.69,15.68-77.31-11.48,18.83-22.29,36.59-33.81,55.49h0Zm-141.29,6.53c-.1,9.66,7.73,17.71,17.46,17.95,10.77.27,19.78-8.45,19.63-18.98-.14-9.55-8.14-17.67-17.75-18-10.91-.38-19.22,7.81-19.34,19.03h0Z"/>
    </g>
  </g>
</svg>