<?xml version="1.0" encoding="UTF-8"?>
<svg id="Layer_2" data-name="Layer 2" xmlns="http://www.w3.org/2000/svg" viewBox="0 0 337.97 334.11">
  <defs>
    <style>
      .cls-1 {
        fill: #094c48;
      }

      .cls-1, .cls-2 {
        stroke-width: 0px;
      }

      .cls-2 {
        fill: #77d5a7;
      }
    </style>
  </defs>
  <g id="Layer_2-2" data-name="Layer 2">
    <g id="Layer_6" data-name="Layer 6">
      <path class="cls-1" d="m313.68,250.51c-11.36,0-21.75-.29-32.1.22-2.28.11-4.58,2.89-6.58,4.74-13.76,12.73-29.39,20.63-48.69,20.19-14.95-.34-29.92-.07-46.05-.07v42.03c0,2.22-.02,4.45.03,6.67.11,5.16-.81,9.64-7.26,9.82-6.6.18-7.45-4.27-7.44-9.49.04-13.62-.04-27.24-.07-40.86v-8.07h-15.95c-9.73-.01-19.47-.36-29.18.02-19.2.75-35.52-5.92-49.07-19.06-5.43-5.27-10.99-7.67-18.5-7.07-6.85.55-13.78.12-22.1.12,1.73,2.87,2.61,4.76,3.87,6.34,19.26,24.09,42.89,42.59,71.04,55.26,1.52.68,3.06,1.33,4.55,2.07,4.16,2.08,8.51,4.59,5.74,10.06-2.54,5.01-6.96,6.93-12.62,4.19-24.1-11.65-47.03-25.03-65.1-45.28-10.17-11.39-20.2-22.92-29.71-34.86-1.9-2.38-2.48-7.56-1.17-10.23,1.15-2.36,5.81-4.3,8.87-4.23,12.86.32,25.69,1.47,37.94,2.27.91-1.95,1.44-2.57,1.3-2.89-6.55-15.2-6.9-31.21-6.82-47.42.22-41.42.19-82.84-.11-124.25-.09-13.29-1.72-26.57-1.72-39.85,0-3.38,2.82-7.77,5.69-9.74,1.61-1.1,7.52.87,8.85,3.06,9.19,15.19,24.77,22.77,38.25,32.64,16.7,12.22,34.36,23.12,52.9,35.46-11.25-28.29-4.18-52.07,19.36-69.27,22.85,13.73,30.19,38.13,19.85,69.56,10.69-7.22,20.41-13.41,29.74-20.15,18.88-13.65,37.6-27.53,56.25-41.49,2.81-2.1,4.6-5.62,7.48-7.58,2.05-1.4,5.63-2.43,7.62-1.56,2.04.9,4.22,4.31,4.22,6.62.02,58.59.03,117.18-.64,175.76-.15,13.09-2.86,26.16-4.47,39.89,10.32,0,22.45.96,34.29-.45,5.09-.6,9.13-1.18,11.05,3.29,1.23,2.89.97,7.92-.83,10.38-24.99,34.07-54.9,62.44-94.34,79.4-1.28.55-2.85,1.75-3.83,1.39-3.54-1.27-7.83-2.34-9.88-5-1-1.29,1.45-7.36,3.83-8.8,10.91-6.6,22.61-11.9,33.55-18.47,17.81-10.71,32.57-24.99,45.48-41.21.8-1,1.35-2.19,2.52-4.12l-.04.02Zm-31.85-211.33c-3.17,1.67-4.9,2.35-6.38,3.39-14.76,10.4-29.24,21.22-44.28,31.2-14.53,9.64-29.31,19.03-44.65,27.26-4.71,2.52-6.76,4.17-6.68,9.38.29,18.34.18,36.68.29,55.02,0,2,.51,4,.85,6.5,23.66-19.61,63.16-28.34,77.81-17.82-11.66,39.28-30.21,70.79-77.93,67.38v38.87c17.41,0,34.12.9,50.7-.2,28.49-1.88,49.39-26.97,50.14-59.9.68-29.72.39-59.47.49-89.21,0-1.55-.3-3.1-.68-6.72-13.9,9.55-26.78,18-39.16,27.13-4.36,3.22-7.85,5.31-12.32,1.13-4.31-4.03-3.03-9.2,3.3-13.7,14.26-10.14,28.6-20.17,42.76-30.45,2.31-1.67,5.39-4.35,5.47-6.67.52-13.74.25-27.52.25-42.6h.02ZM63.83,105.67c0,35.79-1.66,69.44.51,102.84,1.84,28.29,23.13,49.74,47.37,51.57,16.02,1.21,32.2.43,48.3.11,1.83-.04,5.1-2.78,5.17-4.37.46-11.01.24-22.06.24-33.76-4.09-.23-7.33-.46-10.58-.59-21.87-.9-39.23-10.27-50.42-29.02-6.63-11.11-11.48-23.32-16.52-35.29-.52-1.23,3.06-6.03,4.86-6.11,25.49-1.1,51.11-2.03,69.46,20.87.38.47,1.34.48,3.35,1.13,0-20.05-.31-39.39.16-58.72.18-7.32-1.21-11.14-9.14-13.56-8.03-2.45-15.41-7.58-22.51-12.38-20.94-14.13-41.6-28.68-62.39-43.04-2.13-1.47-4.4-2.76-8.33-5.2,0,13.76.39,25.61-.15,37.41-.31,6.94,2,11.45,7.84,15.09,13.67,8.5,27.16,17.3,40.55,26.23,4.45,2.97,8.99,6.66,4.45,12.85-4.43,6.05-8.85,3.1-13.55-.14-12.28-8.45-24.76-16.61-38.67-25.91h0Zm172.54,62.16c-29.11-5.25-50.76,17.59-51.89,36.92,25.32,2.87,45.57-11.54,51.89-36.92Zm-76.38,36.64c-5.6-26.27-23.11-41.11-50.28-35.89,8.36,26.39,26.43,39.29,50.28,35.89Zm4.48-135.82c1.87-8.01,3.72-15.94,5.82-24.9,10.55,7.2,7.36,16.64,9.15,25.15,6.28-10.32,2.6-23.55-7.7-30.63-11.93,11.74-14.1,21.28-7.27,30.38Z"/>
    </g>
    <g id="Layer_6-2" data-name="Layer 6">
      <path class="cls-2" d="m307.07,239.68c-11.36,0-21.75-.29-32.1.22-2.28.11-4.58,2.89-6.58,4.74-13.76,12.73-29.39,20.63-48.69,20.19-14.95-.34-29.92-.07-46.05-.07v42.03c0,2.22-.02,4.45.03,6.67.11,5.16-.81,9.64-7.26,9.82-6.6.18-7.45-4.27-7.44-9.49.04-13.62-.04-27.24-.07-40.86v-8.07h-15.95c-9.73-.01-19.47-.36-29.18.02-19.2.75-35.52-5.92-49.07-19.06-5.43-5.27-10.99-7.67-18.5-7.07-6.85.55-13.78.12-22.1.12,1.73,2.87,2.61,4.76,3.87,6.34,19.26,24.09,42.89,42.59,71.04,55.26,1.52.68,3.06,1.33,4.55,2.07,4.16,2.08,8.51,4.59,5.74,10.06-2.54,5.01-6.96,6.93-12.62,4.19-24.1-11.65-47.03-25.03-65.1-45.28-10.17-11.39-20.2-22.92-29.71-34.86-1.9-2.38-2.48-7.56-1.17-10.23,1.15-2.36,5.81-4.3,8.87-4.23,12.86.32,25.69,1.47,37.94,2.27.91-1.95,1.44-2.57,1.3-2.89-6.55-15.2-6.9-31.21-6.82-47.42.22-41.42.19-82.84-.11-124.25-.09-13.29-1.72-26.57-1.72-39.85,0-3.38,2.82-7.77,5.69-9.74,1.61-1.1,7.52.87,8.85,3.06,9.19,15.19,24.77,22.77,38.25,32.64,16.7,12.22,34.36,23.12,52.9,35.46-11.25-28.29-4.18-52.07,19.36-69.27,22.85,13.73,30.19,38.13,19.85,69.56,10.69-7.22,20.41-13.41,29.74-20.15,18.88-13.65,37.6-27.53,56.25-41.49,2.81-2.1,4.6-5.62,7.48-7.58,2.05-1.4,5.63-2.43,7.62-1.56,2.04.9,4.22,4.31,4.22,6.62.02,58.59.03,117.18-.64,175.76-.15,13.09-2.86,26.16-4.47,39.89,10.32,0,22.45.96,34.29-.45,5.09-.6,9.13-1.18,11.05,3.29,1.23,2.89.97,7.92-.83,10.38-24.99,34.07-54.9,62.44-94.34,79.4-1.28.55-2.85,1.75-3.83,1.39-3.54-1.27-7.83-2.34-9.88-5-1-1.29,1.45-7.36,3.83-8.8,10.91-6.6,22.61-11.9,33.55-18.47,17.81-10.71,32.57-24.99,45.48-41.21.8-1,1.35-2.19,2.52-4.12l-.04.02Zm-31.85-211.33c-3.17,1.67-4.9,2.35-6.38,3.39-14.76,10.4-29.24,21.22-44.28,31.2-14.53,9.64-29.31,19.03-44.65,27.26-4.71,2.52-6.76,4.17-6.68,9.38.29,18.34.18,36.68.29,55.02,0,2,.51,4,.85,6.5,23.66-19.61,63.16-28.34,77.81-17.82-11.66,39.28-30.21,70.79-77.93,67.38v38.87c17.41,0,34.12.9,50.7-.2,28.49-1.88,49.39-26.97,50.14-59.9.68-29.72.39-59.47.49-89.21,0-1.55-.3-3.1-.68-6.72-13.9,9.55-26.78,18-39.16,27.13-4.36,3.22-7.85,5.31-12.32,1.13-4.31-4.03-3.03-9.2,3.3-13.7,14.26-10.14,28.6-20.17,42.76-30.45,2.31-1.67,5.39-4.35,5.47-6.67.52-13.74.25-27.52.25-42.6h.02ZM57.22,94.84c0,35.79-1.66,69.44.51,102.84,1.84,28.29,23.13,49.74,47.37,51.57,16.02,1.21,32.2.43,48.3.11,1.83-.04,5.1-2.78,5.17-4.37.46-11.01.24-22.06.24-33.76-4.09-.23-7.33-.46-10.58-.59-21.87-.9-39.23-10.27-50.42-29.02-6.63-11.11-11.48-23.32-16.52-35.29-.52-1.23,3.06-6.03,4.86-6.11,25.49-1.1,51.11-2.03,69.46,20.87.38.47,1.34.48,3.35,1.13,0-20.05-.31-39.39.16-58.72.18-7.32-1.21-11.14-9.14-13.56-8.03-2.45-15.41-7.58-22.51-12.38-20.94-14.13-41.6-28.68-62.39-43.04-2.13-1.47-4.4-2.76-8.33-5.2,0,13.76.39,25.61-.15,37.41-.31,6.94,2,11.45,7.84,15.09,13.67,8.5,27.16,17.3,40.55,26.23,4.45,2.97,8.99,6.66,4.45,12.85-4.43,6.05-8.85,3.1-13.55-.14-12.28-8.45-24.76-16.61-38.67-25.91h0Zm172.54,62.16c-29.11-5.25-50.76,17.59-51.89,36.92,25.32,2.87,45.57-11.54,51.89-36.92Zm-76.38,36.64c-5.6-26.27-23.11-41.11-50.28-35.89,8.36,26.39,26.43,39.29,50.28,35.89Zm4.48-135.82c1.87-8.01,3.72-15.94,5.82-24.9,10.55,7.2,7.36,16.64,9.15,25.15,6.28-10.32,2.6-23.55-7.7-30.63-11.93,11.74-14.1,21.28-7.27,30.38Z"/>
    </g>
  </g>
</svg>