<?xml version="1.0" encoding="UTF-8"?>
<svg id="Layer_2" data-name="Layer 2" xmlns="http://www.w3.org/2000/svg" viewBox="0 0 343.89 330.66">
  <defs>
    <style>
      .cls-1 {
        fill: #094c48;
      }

      .cls-1, .cls-2 {
        stroke-width: 0px;
      }

      .cls-2 {
        fill: #77d5a7;
      }
    </style>
  </defs>
  <g id="Layer_2-2" data-name="Layer 2">
    <g id="Layer_8" data-name="Layer 8">
      <path class="cls-1" d="m197,217.36c-5.78-4.33-10.99-8.67-16.67-12.26-1.85-1.17-5.49-1.39-7.34-.34-11.35,6.42-22.34,13.45-33.59,20.04-13.2,7.73-20.69,18.03-19.9,34.37.99,20.61.29,41.3.55,61.95.06,5.05-.98,9.55-6.56,9.38-5.2-.16-7.66-3.77-7.59-9.63.27-23.27-.23-46.54.12-69.81.25-16.45,9.49-27.78,22.96-35.97,7.36-4.47,14.98-8.53,22.59-12.59,12.16-6.49,19.29-15.64,17.15-30.28-.52-3.56-.08-7.26-.08-12.31-3.31,1.32-5.95,2.02-8.23,3.34-27.62,15.9-55.25,31.8-82.66,48.05-2.29,1.36-4.31,5.3-4.32,8.05-.16,31.37.09,62.74.23,94.11.01,3.14.88,6.61-.2,9.32-1.15,2.87-4.13,5.01-6.31,7.47-2.54-2.76-7.26-5.49-7.3-8.28-.4-29.79-.06-59.59.07-89.39,0-2.77,0-5.54,0-10.31-12.06,7.1-22.49,13.21-32.9,19.37-2.47,1.46-4.86,3.07-7.25,4.66-3.74,2.5-7.73,5.48-11.55.69-3.48-4.37-1.01-11.68,4.44-14.64,9.13-4.97,18.41-9.66,27.37-14.91,35.62-20.85,71.15-41.85,106.69-62.84,1.7-1,3.18-2.39,6.98-5.28-18.61-7.8-35.52-15.03-52.56-21.92-4.66-1.88-8.3-.89-11.7,4.11-7.36,10.82-23.09,14.86-35.87,10.43-9.6-3.33-18.49-10.13-25-19.54,12.06-11.15,24.15-22.19,42.36-21.02,4,.26,9.02,1.35,11.57,4,5.67,5.89,13.03,5.45,19.7,7.85,16.13,5.8,31.78,12.93,47.53,19.75,5.89,2.55,11.51,5.71,17.25,8.59.88-.62,1.76-1.24,2.65-1.87-3.67-8.62-6.13-18.07-11.34-25.63-6.13-8.91-14.49-16.32-22.22-24.05-1.52-1.52-4.96-2.67-6.87-2.03-21.83,7.31-42.95-5.06-54.7-22.36-9.93-14.62-12.86-31.79-17.04-48.46-1.66-6.59,1.85-8.65,8.08-8.62,16.67.08,31.43,6.81,46.44,12.76,5.06,2.01,9.93,4.66,15.13,6.15,19.73,5.65,35.73,16.69,48.35,33.15,13.99-18.63,32.21-29.13,54.01-34.83,12.25-3.2,23.68-9.42,35.78-13.33,6.54-2.11,13.69-2.5,20.62-3.16,5.48-.52,7.93,2.52,6.33,7.82-4.23,13.97-7.43,28.44-13.36,41.67-10.88,24.28-32.15,34.09-58.37,29.09-1.64-.31-3.92-.3-5.13.6-16.41,12.3-28.19,27.8-32.48,48.27-.25,1.18.22,2.51.47,4.91,4.68-2.38,8.81-4.39,12.85-6.55,19.33-10.34,38.22-21.83,61.08-22.81,1.53-.07,3.24-1.51,4.43-2.73,9.17-9.46,20.12-10.31,31.84-6.4,10.95,3.65,19.46,10.83,27.34,20-9.36,11.61-20.57,19.7-35.54,20.57-10.52.62-19.64-3.48-25.11-13.01-2.51-4.37-5.55-4.85-9.74-3.79-18.92,4.8-36.15,13.29-53.72,24.18,8,4.48,15.23,8.35,22.29,12.51,36.23,21.35,72.42,42.78,108.62,64.17,4,2.36,8.32,4.3,11.97,7.11,4.02,3.09,6.04,7.4,2.18,12.02-3.75,4.49-7.39,2.44-11.56-.25-12.2-7.86-24.7-15.24-38.72-23.8-.22,4.8-.48,7.49-.45,10.17.27,29.79.8,59.58.54,89.36-.02,2.73-4.94,5.43-7.59,8.14-2.17-3.02-6.17-6.02-6.22-9.08-.56-33.2-.57-66.4-.55-99.61,0-4.99-.55-8.75-5.63-11.61-27.54-15.51-54.86-31.41-82.29-47.11-1.72-.99-3.74-1.45-5.75-2.2-1.96,26.26-4.17,28.5,19.45,42.22,10.06,5.84,20.28,11.82,29.06,19.33,9.25,7.91,13.08,19.13,13.06,31.63-.04,23,.23,46,.65,68.99.11,5.85-3.56,7.57-7.8,7.56-5,0-6.79-3.55-6.74-8.59.2-22.75.17-45.49.13-68.24-.02-11.47-5.82-19.69-14.87-26.08-3.48-2.45-6.54-2.73-9.68.6-3.38,3.59-6.98,6.98-10.32,10.29,10.11,25.88,3.96,41.37-21.04,53.1-6.36,2.99-13.04,5.39-19.76,7.44-1.52.47-5.51-1.59-5.53-2.55-.31-14.53-1.72-29.29.35-43.53,2.02-13.86,13.79-21,27.91-21.6,3.06-.13,6.36-2.35,8.93-4.4,3.39-2.7,6.16-6.18,9.61-9.74h0ZM120.95,73.63c-6.46-4.74-11.69-8.03-16.24-12.09-3.34-2.98-9.38-5.79-4.92-11.94,4.48-6.17,9.09-2.44,13.43.57,4.04,2.8,8.02,5.69,12.24,8.69.34-17.97-35.05-34.16-49.71-30.83,3.89,26.62,21.18,50.46,45.2,45.6Zm107.41.25c24.56,1.9,46.2-21.97,44.65-46.07-21.94-.9-45.11,13.81-47.88,30.37,5.25-3.72,10.29-7.8,15.86-10.95,1.72-.97,5.86-.26,7.09,1.2,1.4,1.65,1.7,5.42.78,7.52-1.04,2.37-3.94,3.96-6.1,5.8-4.24,3.62-8.52,7.18-14.4,12.13h0Zm-88.47-25.03c.96,8.23,1.86,16.14,2.84,24.05.16,1.25.35,2.86,1.16,3.61,8.29,7.62,16.7,15.09,24.42,22,4.25-23.83-5.77-37.62-28.42-49.66Zm43.27,49.69c7.83-7.17,15.45-14.08,22.97-21.11,1.08-1.01,2.19-2.49,2.36-3.87,1.06-8.7,1.87-17.43,2.78-26.37-18.94,11.8-33.41,25.97-28.1,51.35h0Zm-105.68,23c-8.69-7.1-17.95-6.29-25.9,1.93,10.42,7.12,19.68,6.49,25.9-1.93Zm220.17,2.39c-9.64-8.81-18.62-9.63-25.13-2.3,6.54,8.18,13.07,8.78,25.13,2.3Zm-122.68,151.7c10.69-7.26,13.98-15.27,10-22.3-3.13,6.97-6.27,13.97-10,22.3Zm-11.29-7.79c3.02-6.11,6.05-12.22,9.46-19.1-8.26,2.56-10.91,7.71-9.46,19.1Z"/>
    </g>
    <g id="Layer_8-2" data-name="Layer 8">
      <path class="cls-2" d="m190.39,208.81c-5.78-4.33-10.99-8.67-16.67-12.26-1.85-1.17-5.49-1.39-7.34-.34-11.35,6.42-22.34,13.45-33.59,20.04-13.2,7.73-20.69,18.03-19.9,34.37.99,20.61.29,41.3.55,61.95.06,5.05-.98,9.55-6.56,9.38-5.2-.16-7.66-3.77-7.59-9.63.27-23.27-.23-46.54.12-69.81.25-16.45,9.49-27.78,22.96-35.97,7.36-4.47,14.98-8.53,22.59-12.59,12.16-6.49,19.29-15.64,17.15-30.28-.52-3.56-.08-7.26-.08-12.31-3.31,1.32-5.95,2.02-8.23,3.34-27.62,15.9-55.25,31.8-82.66,48.05-2.29,1.36-4.31,5.3-4.32,8.05-.16,31.37.09,62.74.23,94.11.01,3.14.88,6.61-.2,9.32-1.15,2.87-4.13,5.01-6.31,7.47-2.54-2.76-7.26-5.49-7.3-8.28-.4-29.79-.06-59.59.07-89.39,0-2.77,0-5.54,0-10.31-12.06,7.1-22.49,13.21-32.9,19.37-2.47,1.46-4.86,3.07-7.25,4.66-3.74,2.5-7.73,5.48-11.55.69-3.48-4.37-1.01-11.68,4.44-14.64,9.13-4.97,18.41-9.66,27.37-14.91,35.62-20.85,71.15-41.85,106.69-62.84,1.7-1,3.18-2.39,6.98-5.28-18.61-7.8-35.52-15.03-52.56-21.92-4.66-1.88-8.3-.89-11.7,4.11-7.36,10.82-23.09,14.86-35.87,10.43-9.6-3.33-18.49-10.13-25-19.54,12.06-11.15,24.15-22.19,42.36-21.02,4,.26,9.02,1.35,11.57,4,5.67,5.89,13.03,5.45,19.7,7.85,16.13,5.8,31.78,12.93,47.53,19.75,5.89,2.55,11.51,5.71,17.25,8.59.88-.62,1.76-1.24,2.65-1.87-3.67-8.62-6.13-18.07-11.34-25.63-6.13-8.91-14.49-16.32-22.22-24.05-1.52-1.52-4.96-2.67-6.87-2.03-21.83,7.31-42.95-5.06-54.7-22.36-9.93-14.62-12.86-31.79-17.04-48.46C49.19,2.03,52.7-.03,58.93,0c16.67.08,31.43,6.81,46.44,12.76,5.06,2.01,9.93,4.66,15.13,6.15,19.73,5.65,35.73,16.69,48.35,33.15,13.99-18.63,32.21-29.13,54.01-34.83,12.25-3.2,23.68-9.42,35.78-13.33,6.54-2.11,13.69-2.5,20.62-3.16,5.48-.52,7.93,2.52,6.33,7.82-4.23,13.97-7.43,28.44-13.36,41.67-10.88,24.28-32.15,34.09-58.37,29.09-1.64-.31-3.92-.3-5.13.6-16.41,12.3-28.19,27.8-32.48,48.27-.25,1.18.22,2.51.47,4.91,4.68-2.38,8.81-4.39,12.85-6.55,19.33-10.34,38.22-21.83,61.08-22.81,1.53-.07,3.24-1.51,4.43-2.73,9.17-9.46,20.12-10.31,31.84-6.4,10.95,3.65,19.46,10.83,27.34,20-9.36,11.61-20.57,19.7-35.54,20.57-10.52.62-19.64-3.48-25.11-13.01-2.51-4.37-5.55-4.85-9.74-3.79-18.92,4.8-36.15,13.29-53.72,24.18,8,4.48,15.23,8.35,22.29,12.51,36.23,21.35,72.42,42.78,108.62,64.17,4,2.36,8.32,4.3,11.97,7.11,4.02,3.09,6.04,7.4,2.18,12.02-3.75,4.49-7.39,2.44-11.56-.25-12.2-7.86-24.7-15.24-38.72-23.8-.22,4.8-.48,7.49-.45,10.17.27,29.79.8,59.58.54,89.36-.02,2.73-4.94,5.43-7.59,8.14-2.17-3.02-6.17-6.02-6.22-9.08-.56-33.2-.57-66.4-.55-99.61,0-4.99-.55-8.75-5.63-11.61-27.54-15.51-54.86-31.41-82.29-47.11-1.72-.99-3.74-1.45-5.75-2.2-1.96,26.26-4.17,28.5,19.45,42.22,10.06,5.84,20.28,11.82,29.06,19.33,9.25,7.91,13.08,19.13,13.06,31.63-.04,23,.23,46,.65,68.99.11,5.85-3.56,7.57-7.8,7.56-5,0-6.79-3.55-6.74-8.59.2-22.75.17-45.49.13-68.24-.02-11.47-5.82-19.69-14.87-26.08-3.48-2.45-6.54-2.73-9.68.6-3.38,3.59-6.98,6.98-10.32,10.29,10.11,25.88,3.96,41.37-21.04,53.1-6.36,2.99-13.04,5.39-19.76,7.44-1.52.47-5.51-1.59-5.53-2.55-.31-14.53-1.72-29.29.35-43.53,2.02-13.86,13.79-21,27.91-21.6,3.06-.13,6.36-2.35,8.93-4.4,3.39-2.7,6.16-6.18,9.61-9.74h0ZM114.34,65.08c-6.46-4.74-11.69-8.03-16.24-12.09-3.34-2.98-9.38-5.79-4.92-11.94,4.48-6.17,9.09-2.44,13.43.57,4.04,2.8,8.02,5.69,12.24,8.69.34-17.97-35.05-34.16-49.71-30.83,3.89,26.62,21.18,50.46,45.2,45.6Zm107.41.25c24.56,1.9,46.2-21.97,44.65-46.07-21.94-.9-45.11,13.81-47.88,30.37,5.25-3.72,10.29-7.8,15.86-10.95,1.72-.97,5.86-.26,7.09,1.2,1.4,1.65,1.7,5.42.78,7.52-1.04,2.37-3.94,3.96-6.1,5.8-4.24,3.62-8.52,7.18-14.4,12.13h0Zm-88.47-25.03c.96,8.23,1.86,16.14,2.84,24.05.16,1.25.35,2.86,1.16,3.61,8.29,7.62,16.7,15.09,24.42,22,4.25-23.83-5.77-37.62-28.42-49.66Zm43.27,49.69c7.83-7.17,15.45-14.08,22.97-21.11,1.08-1.01,2.19-2.49,2.36-3.87,1.06-8.7,1.87-17.43,2.78-26.37-18.94,11.8-33.41,25.97-28.1,51.35h0Zm-105.68,23c-8.69-7.1-17.95-6.29-25.9,1.93,10.42,7.12,19.68,6.49,25.9-1.93Zm220.17,2.39c-9.64-8.81-18.62-9.63-25.13-2.3,6.54,8.18,13.07,8.78,25.13,2.3Zm-122.68,151.7c10.69-7.26,13.98-15.27,10-22.3-3.13,6.97-6.27,13.97-10,22.3Zm-11.29-7.79c3.02-6.11,6.05-12.22,9.46-19.1-8.26,2.56-10.91,7.71-9.46,19.1Z"/>
    </g>
  </g>
</svg>