<?xml version="1.0" encoding="UTF-8"?>
<svg id="Layer_2" data-name="Layer 2" xmlns="http://www.w3.org/2000/svg" viewBox="0 0 392.83 321.75">
  <defs>
    <style>
      .cls-1 {
        fill: #094c48;
        stroke-width: 0px;
      }
    </style>
  </defs>
  <g id="Layer_2-2" data-name="Layer 2">
    <g id="Layer_9" data-name="Layer 9">
      <g>
        <path class="cls-1" d="m313.89,150.48c-2.11,9-3.27,17.24-6,24.94-5.14,14.49-15.78,23.17-31.09,25.52-25.01,3.83-43.73-19.59-34.55-43.19,1.63-4.19,4.01-8.09,6.69-13.42h-17.78c-22.5,0-45.01.02-67.51.06-5.41,0-11.7-.2-11.53-7.12.16-6.47,5.42-8.2,11.88-8.16,40.97.25,81.93.12,122.9.1,1.7,0,3.4-.19,7.49-.43-4.07-5.02-6.66-9.36-10.3-12.48-9.07-7.76-19.91-11.61-31.85-11.65-74.72-.24-149.44-.39-224.17-.52-4.3,0-8.79,1.22-12.83.32-2.79-.62-6.5-3.65-7-6.15s1.93-7.53,4.08-8.2c4.82-1.5,10.28-1.01,15.48-1.26,1.72-.08,3.46.07,5.19.07,66.07,0,132.14,0,198.21-.03,1.67,0,3.33-.21,6.02-.39-1.02-1.54-1.38-2.56-2.11-3.12-14.96-11.75-19.93-26.7-15.03-45.19,3.97-14.99,12.88-26.86,23.42-37.8,4.13-4.28,6.86-2.08,10.04,1.11,12.34,12.43,22.83,25.97,26.91,44.32h56.17c4.47,0,8.94-.07,13.42-.07,5.92,0,8.27,3.67,8.14,8.88-.14,5.62-3.66,8.06-9.17,7.97-20.17-.32-40.33-.47-60.5-.95-5.71-.13-8.97,1.18-11.96,6.99-3.24,6.29-9.53,11-15.09,17.05,22.09,6.26,40.64,18.2,49.9,41.54,18.98,0,37.71.14,56.42-.18,2.22-.04,4.4-2.59,5.87-3.52,1.43,1.04,3.07,3.17,4.97,3.43,5.57.78,8.07,4.27,6.71,8.92-1.29,4.41-3.83,8.11-10.45,7.7-13.45-.83-26.98-.25-41.83-.25,21.07,27.69,19.03,55.01-3.95,82.2,13.91,0,26.41-.17,38.91.11,3.56.08,8.36.34,10.26,2.54,1.89,2.18,2.19,7.69.68,10.28-1.4,2.42-6.1,4.11-9.34,4.11-32.29,0-64.58-.65-96.88-.72-80.78-.18-161.56-.17-242.34-.17-4.3,0-8.98,1.84-12.78.63-3.57-1.14-6.22-5.19-9.27-7.96,3.09-2.89,5.76-6.67,9.4-8.37,2.76-1.29,6.76.25,10.21.25,85.98,0,171.95.04,257.93-.14,27.28-.06,47.24-20.47,45.93-46.57-.66-13.12-7.04-23.05-17.92-31.02h0Zm-16.54-5.01c-14.4-1.26-27.09-.44-36.62,11.24-6.79,8.32-6.47,18.56.75,24.73,7.33,6.27,18.7,5.35,25.62-2.32,8.43-9.35,10.14-20.74,10.24-33.65h.01Zm-48.98-122.91c-15.05,13.28-18.87,36.42-7.28,45.43,1.52-10.17-3.05-21.81,8.84-30.32,1.03,1.61,2.65,3.13,3.04,4.92,1.83,8.42,3.31,16.91,4.9,25.27,11.45-10.91,7.4-31.46-9.5-45.3h0Z"/>
        <path class="cls-1" d="m357.37,266.63c1.08,3.64,4.93,9.44,3.52,13.34-2.75,7.6-10.5,4.5-16.63,3.9-3.14-.31-6.31-.57-9.46-.57-92.31-.07-184.63-.12-276.94-.06-3.35,0-6.77,1.77-10.02,1.44-5.03-.51-10.14-1.68-14.79-3.6-1.18-.49-1.59-5.11-.91-7.41,1.78-5.97,6.75-5.31,11.87-5.29,32.6.18,65.2-.03,97.79-.04,66.64-.02,133.28.04,199.92-.04,4.42,0,8.84-.92,15.65-1.67h0Z"/>
        <path class="cls-1" d="m85.77,63.65c-13.83,0-27.68-.41-41.49.18-6.27.27-9.91-2.55-10.22-7.65-.34-5.48,3.6-8.6,9.64-8.52,25.92.36,51.85.6,77.78.8,3.15.02,7.1.69,9.27-.88,3.58-2.58,7.74-6.4,8.54-10.34,1.21-5.92-4.29-8.28-9.47-8.77-5.72-.54-11.51-.49-17.27-.43-12.1.13-24.22.83-36.29.4-3.13-.11-6.13-3.55-9.19-5.47,3-3.26,5.86-9.17,9.03-9.33,18.3-.95,36.71-1.23,55.01-.37,14.76.69,24.57,12.54,24.02,26.57-.53,13.5-11.18,23.18-26.98,23.66-14.11.42-28.25.09-42.37.09v.05h-.01Z"/>
        <path class="cls-1" d="m48.52,145.14c-11.79,0-23.59-.15-35.37.06-6.41.11-10.12-3.12-9.92-9,.19-5.51,4.22-8.17,10.03-8.06,23,.46,46,.78,69,1.14,1.15.02,2.3-.12,3.46-.11,5.34.06,10.48,1.38,10.39,7.68-.09,6.04-4.88,7.73-10.41,7.69-12.39-.09-24.78-.03-37.17-.03v.63h0Z"/>
        <path class="cls-1" d="m133.39,184.8h-37.12c-5.63,0-11.12-1.09-10.89-7.98.2-6.27,5.35-7.21,10.74-7.16,23.88.23,47.77.33,71.65.48,1.15,0,2.68-.41,3.39.16,3.01,2.46,5.77,5.21,8.62,7.86-3.09,2.27-6.06,6.31-9.28,6.51-12.32.77-24.73.31-37.1.31v-.18h0Z"/>
        <path class="cls-1" d="m104.29,304.1c9.8,0,19.68-.67,29.38.32,3.98.41,10.42,4.06,10.77,6.86.78,6.18-4.62,7.77-10.64,7.83-17.55.2-35.09.98-52.64,1.51-2.59.08-5.21.29-7.78.02-5.06-.52-8.52-2.46-8.53-8.57-.01-6.03,3.72-7.54,8.29-7.66,10.37-.28,20.76-.09,31.14-.09v-.23h0Z"/>
        <path class="cls-1" d="m233.73,319.62c-9.22,0-18.45-.1-27.67.04-5.41.08-10.62-1.11-10.88-7.13-.27-6.32,4.54-8.53,10.58-8.52,18.74.04,37.48-.04,56.22-.17,5.68-.04,10.36,2.27,10.12,8.04-.24,5.68-4.96,7.59-10.7,7.38-9.21-.33-18.45-.09-27.67-.09v.45h0Z"/>
        <path class="cls-1" d="m363,104.05c-3.15,0-6.66.86-9.34-.25-2.78-1.15-6.39-4.05-6.65-6.51-.25-2.39,2.87-6.89,5.23-7.45,6.28-1.5,13.07-2.33,19.41-1.51,3.13.41,5.72,5.03,8.56,7.75-3.46,2.89-6.67,6.19-10.49,8.49-1.57.94-4.43-.28-6.71-.53h-.01Z"/>
        <path class="cls-1" d="m380.82,193.11c-6.26-.16-11.55-6.06-11.3-12.61.23-6.02,5.82-12.22,11.1-12.28,5.67-.07,11.72,6.43,11.76,12.63.05,6.95-5.11,12.42-11.56,12.26h0Z"/>
        <path class="cls-1" d="m19.9,181.18c-1.26,4.9-3.27,10.25-10.32,9.67-6.3-.52-10.9-4.78-9.24-10.9,1.11-4.08,5.57-8.52,9.6-10.18,4.33-1.79,10.15,5.3,9.95,11.42h.01Z"/>
        <path class="cls-1" d="m178.48,312.88c-3.82,2.79-6.65,6.2-8.21,5.69-2.48-.8-4.11-4.22-6.1-6.53,2.11-1.81,4.18-4.96,6.36-5.04,2.1-.07,4.32,3.02,7.95,5.88h0Z"/>
        <path class="cls-1" d="m324.88,94.94c-3.13,2.63-5.05,5.51-7.06,5.57-1.89.06-3.87-2.85-5.82-4.45,1.8-2.18,3.25-5.29,5.55-6.18,1.3-.5,4.01,2.66,7.32,5.07h.01Z"/>
      </g>
      <g id="Layer_9-2" data-name="Layer 9">
        <g>
          <path class="cls-1" d="m314.34,151.45c-2.11,9-3.27,17.24-6,24.94-5.14,14.49-15.78,23.17-31.09,25.52-25.01,3.83-43.73-19.59-34.55-43.19,1.63-4.19,4.01-8.09,6.69-13.42h-17.78c-22.5,0-45.01.02-67.51.06-5.41,0-11.7-.2-11.53-7.12.16-6.47,5.42-8.2,11.88-8.16,40.97.25,81.93.12,122.9.1,1.7,0,3.4-.19,7.49-.43-4.07-5.02-6.66-9.36-10.3-12.48-9.07-7.76-19.91-11.61-31.85-11.65-74.72-.24-149.44-.39-224.17-.52-4.3,0-8.79,1.22-12.83.32-2.79-.62-6.5-3.65-7-6.15s1.93-7.53,4.08-8.2c4.82-1.5,10.28-1.01,15.48-1.26,1.72-.08,3.46.07,5.19.07,66.07,0,132.14,0,198.21-.03,1.67,0,3.33-.21,6.02-.39-1.02-1.54-1.38-2.56-2.11-3.12-14.96-11.75-19.93-26.7-15.03-45.19,3.97-14.99,12.88-26.86,23.42-37.8,4.13-4.28,6.86-2.08,10.04,1.11,12.34,12.43,22.83,25.97,26.91,44.32h56.17c4.47,0,8.94-.07,13.42-.07,5.92,0,8.27,3.67,8.14,8.88-.14,5.62-3.66,8.06-9.17,7.97-20.17-.32-40.33-.47-60.5-.95-5.71-.13-8.97,1.18-11.96,6.99-3.24,6.29-9.53,11-15.09,17.05,22.09,6.26,40.64,18.2,49.9,41.54,18.98,0,37.71.14,56.42-.18,2.22-.04,4.4-2.59,5.87-3.52,1.43,1.04,3.07,3.17,4.97,3.43,5.57.78,8.07,4.27,6.71,8.92-1.29,4.41-3.83,8.11-10.45,7.7-13.45-.83-26.98-.25-41.83-.25,21.07,27.69,19.03,55.01-3.95,82.2,13.91,0,26.41-.17,38.91.11,3.56.08,8.36.34,10.26,2.54,1.89,2.18,2.19,7.69.68,10.28-1.4,2.42-6.1,4.11-9.34,4.11-32.29,0-64.58-.65-96.88-.72-80.78-.18-161.56-.17-242.34-.17-4.3,0-8.98,1.84-12.78.63-3.57-1.14-6.22-5.19-9.27-7.96,3.09-2.89,5.76-6.67,9.4-8.37,2.76-1.29,6.76.25,10.21.25,85.98,0,171.95.04,257.93-.14,27.28-.06,47.24-20.47,45.93-46.57-.66-13.12-7.04-23.05-17.92-31.02h0Zm-16.54-5.01c-14.4-1.26-27.09-.44-36.62,11.24-6.79,8.32-6.47,18.56.75,24.73,7.33,6.27,18.7,5.35,25.62-2.32,8.43-9.35,10.14-20.74,10.24-33.65h.01Zm-48.98-122.91c-15.05,13.28-18.87,36.42-7.28,45.43,1.52-10.17-3.05-21.81,8.84-30.32,1.03,1.61,2.65,3.13,3.04,4.92,1.83,8.42,3.31,16.91,4.9,25.27,11.45-10.91,7.4-31.46-9.5-45.3h0Z"/>
          <path class="cls-1" d="m357.82,267.6c1.08,3.64,4.93,9.44,3.52,13.34-2.75,7.6-10.5,4.5-16.63,3.9-3.14-.31-6.31-.57-9.46-.57-92.31-.07-184.63-.12-276.94-.06-3.35,0-6.77,1.77-10.02,1.44-5.03-.51-10.14-1.68-14.79-3.6-1.18-.49-1.59-5.11-.91-7.41,1.78-5.97,6.75-5.31,11.87-5.29,32.6.18,65.2-.03,97.79-.04,66.64-.02,133.28.04,199.92-.04,4.42,0,8.84-.92,15.65-1.67h0Z"/>
          <path class="cls-1" d="m86.22,64.62c-13.83,0-27.68-.41-41.49.18-6.27.27-9.91-2.55-10.22-7.65-.34-5.48,3.6-8.6,9.64-8.52,25.92.36,51.85.6,77.78.8,3.15.02,7.1.69,9.27-.88,3.58-2.58,7.74-6.4,8.54-10.34,1.21-5.92-4.29-8.28-9.47-8.77-5.72-.54-11.51-.49-17.27-.43-12.1.13-24.22.83-36.29.4-3.13-.11-6.13-3.55-9.19-5.47,3-3.26,5.86-9.17,9.03-9.33,18.3-.95,36.71-1.23,55.01-.37,14.76.69,24.57,12.54,24.02,26.57-.53,13.5-11.18,23.18-26.98,23.66-14.11.42-28.25.09-42.37.09v.05h-.01Z"/>
          <path class="cls-1" d="m48.97,146.11c-11.79,0-23.59-.15-35.37.06-6.41.11-10.12-3.12-9.92-9,.19-5.51,4.22-8.17,10.03-8.06,23,.46,46,.78,69,1.14,1.15.02,2.3-.12,3.46-.11,5.34.06,10.48,1.38,10.39,7.68-.09,6.04-4.88,7.73-10.41,7.69-12.39-.09-24.78-.03-37.17-.03v.63h0Z"/>
          <path class="cls-1" d="m133.84,185.77h-37.12c-5.63,0-11.12-1.09-10.89-7.98.2-6.27,5.35-7.21,10.74-7.16,23.88.23,47.77.33,71.65.48,1.15,0,2.68-.41,3.39.16,3.01,2.46,5.77,5.21,8.62,7.86-3.09,2.27-6.06,6.31-9.28,6.51-12.32.77-24.73.31-37.1.31v-.18h0Z"/>
          <path class="cls-1" d="m104.74,305.07c9.8,0,19.68-.67,29.38.32,3.98.41,10.42,4.06,10.77,6.86.78,6.18-4.62,7.77-10.64,7.83-17.55.2-35.09.98-52.64,1.51-2.59.08-5.21.29-7.78.02-5.06-.52-8.52-2.46-8.53-8.57-.01-6.03,3.72-7.54,8.29-7.66,10.37-.28,20.76-.09,31.14-.09v-.23h0Z"/>
          <path class="cls-1" d="m234.18,320.59c-9.22,0-18.45-.1-27.67.04-5.41.08-10.62-1.11-10.88-7.13-.27-6.32,4.54-8.53,10.58-8.52,18.74.04,37.48-.04,56.22-.17,5.68-.04,10.36,2.27,10.12,8.04-.24,5.68-4.96,7.59-10.7,7.38-9.21-.33-18.45-.09-27.67-.09v.45h0Z"/>
          <path class="cls-1" d="m363.45,105.02c-3.15,0-6.66.86-9.34-.25-2.78-1.15-6.39-4.05-6.65-6.51-.25-2.39,2.87-6.89,5.23-7.45,6.28-1.5,13.07-2.33,19.41-1.51,3.13.41,5.72,5.03,8.56,7.75-3.46,2.89-6.67,6.19-10.49,8.49-1.57.94-4.43-.28-6.71-.53h-.01Z"/>
          <path class="cls-1" d="m381.27,194.08c-6.26-.16-11.55-6.06-11.3-12.61.23-6.02,5.82-12.22,11.1-12.28,5.67-.07,11.72,6.43,11.76,12.63.05,6.95-5.11,12.42-11.56,12.26h0Z"/>
          <path class="cls-1" d="m20.35,182.15c-1.26,4.9-3.27,10.25-10.32,9.67-6.3-.52-10.9-4.78-9.24-10.9,1.11-4.08,5.57-8.52,9.6-10.18,4.33-1.79,10.15,5.3,9.95,11.42h.01Z"/>
          <path class="cls-1" d="m178.93,313.85c-3.82,2.79-6.65,6.2-8.21,5.69-2.48-.8-4.11-4.22-6.1-6.53,2.11-1.81,4.18-4.96,6.36-5.04,2.1-.07,4.32,3.02,7.95,5.88h0Z"/>
          <path class="cls-1" d="m325.33,95.91c-3.13,2.63-5.05,5.51-7.06,5.57-1.89.06-3.87-2.85-5.82-4.45,1.8-2.18,3.25-5.29,5.55-6.18,1.3-.5,4.01,2.66,7.32,5.07h.01Z"/>
        </g>
      </g>
      <g id="Layer_9-3" data-name="Layer 9">
        <g>
          <path class="cls-1" d="m314.34,151.45c-2.11,9-3.27,17.24-6,24.94-5.14,14.49-15.78,23.17-31.09,25.52-25.01,3.83-43.73-19.59-34.55-43.19,1.63-4.19,4.01-8.09,6.69-13.42h-17.78c-22.5,0-45.01.02-67.51.06-5.41,0-11.7-.2-11.53-7.12.16-6.47,5.42-8.2,11.88-8.16,40.97.25,81.93.12,122.9.1,1.7,0,3.4-.19,7.49-.43-4.07-5.02-6.66-9.36-10.3-12.48-9.07-7.76-19.91-11.61-31.85-11.65-74.72-.24-149.44-.39-224.17-.52-4.3,0-8.79,1.22-12.83.32-2.79-.62-6.5-3.65-7-6.15s1.93-7.53,4.08-8.2c4.82-1.5,10.28-1.01,15.48-1.26,1.72-.08,3.46.07,5.19.07,66.07,0,132.14,0,198.21-.03,1.67,0,3.33-.21,6.02-.39-1.02-1.54-1.38-2.56-2.11-3.12-14.96-11.75-19.93-26.7-15.03-45.19,3.97-14.99,12.88-26.86,23.42-37.8,4.13-4.28,6.86-2.08,10.04,1.11,12.34,12.43,22.83,25.97,26.91,44.32h56.17c4.47,0,8.94-.07,13.42-.07,5.92,0,8.27,3.67,8.14,8.88-.14,5.62-3.66,8.06-9.17,7.97-20.17-.32-40.33-.47-60.5-.95-5.71-.13-8.97,1.18-11.96,6.99-3.24,6.29-9.53,11-15.09,17.05,22.09,6.26,40.64,18.2,49.9,41.54,18.98,0,37.71.14,56.42-.18,2.22-.04,4.4-2.59,5.87-3.52,1.43,1.04,3.07,3.17,4.97,3.43,5.57.78,8.07,4.27,6.71,8.92-1.29,4.41-3.83,8.11-10.45,7.7-13.45-.83-26.98-.25-41.83-.25,21.07,27.69,19.03,55.01-3.95,82.2,13.91,0,26.41-.17,38.91.11,3.56.08,8.36.34,10.26,2.54,1.89,2.18,2.19,7.69.68,10.28-1.4,2.42-6.1,4.11-9.34,4.11-32.29,0-64.58-.65-96.88-.72-80.78-.18-161.56-.17-242.34-.17-4.3,0-8.98,1.84-12.78.63-3.57-1.14-6.22-5.19-9.27-7.96,3.09-2.89,5.76-6.67,9.4-8.37,2.76-1.29,6.76.25,10.21.25,85.98,0,171.95.04,257.93-.14,27.28-.06,47.24-20.47,45.93-46.57-.66-13.12-7.04-23.05-17.92-31.02h0Zm-16.54-5.01c-14.4-1.26-27.09-.44-36.62,11.24-6.79,8.32-6.47,18.56.75,24.73,7.33,6.27,18.7,5.35,25.62-2.32,8.43-9.35,10.14-20.74,10.24-33.65h.01Zm-48.98-122.91c-15.05,13.28-18.87,36.42-7.28,45.43,1.52-10.17-3.05-21.81,8.84-30.32,1.03,1.61,2.65,3.13,3.04,4.92,1.83,8.42,3.31,16.91,4.9,25.27,11.45-10.91,7.4-31.46-9.5-45.3h0Z"/>
          <path class="cls-1" d="m357.82,267.6c1.08,3.64,4.93,9.44,3.52,13.34-2.75,7.6-10.5,4.5-16.63,3.9-3.14-.31-6.31-.57-9.46-.57-92.31-.07-184.63-.12-276.94-.06-3.35,0-6.77,1.77-10.02,1.44-5.03-.51-10.14-1.68-14.79-3.6-1.18-.49-1.59-5.11-.91-7.41,1.78-5.97,6.75-5.31,11.87-5.29,32.6.18,65.2-.03,97.79-.04,66.64-.02,133.28.04,199.92-.04,4.42,0,8.84-.92,15.65-1.67h0Z"/>
          <path class="cls-1" d="m86.22,64.62c-13.83,0-27.68-.41-41.49.18-6.27.27-9.91-2.55-10.22-7.65-.34-5.48,3.6-8.6,9.64-8.52,25.92.36,51.85.6,77.78.8,3.15.02,7.1.69,9.27-.88,3.58-2.58,7.74-6.4,8.54-10.34,1.21-5.92-4.29-8.28-9.47-8.77-5.72-.54-11.51-.49-17.27-.43-12.1.13-24.22.83-36.29.4-3.13-.11-6.13-3.55-9.19-5.47,3-3.26,5.86-9.17,9.03-9.33,18.3-.95,36.71-1.23,55.01-.37,14.76.69,24.57,12.54,24.02,26.57-.53,13.5-11.18,23.18-26.98,23.66-14.11.42-28.25.09-42.37.09v.05h-.01Z"/>
          <path class="cls-1" d="m48.97,146.11c-11.79,0-23.59-.15-35.37.06-6.41.11-10.12-3.12-9.92-9,.19-5.51,4.22-8.17,10.03-8.06,23,.46,46,.78,69,1.14,1.15.02,2.3-.12,3.46-.11,5.34.06,10.48,1.38,10.39,7.68-.09,6.04-4.88,7.73-10.41,7.69-12.39-.09-24.78-.03-37.17-.03v.63h0Z"/>
          <path class="cls-1" d="m133.84,185.77h-37.12c-5.63,0-11.12-1.09-10.89-7.98.2-6.27,5.35-7.21,10.74-7.16,23.88.23,47.77.33,71.65.48,1.15,0,2.68-.41,3.39.16,3.01,2.46,5.77,5.21,8.62,7.86-3.09,2.27-6.06,6.31-9.28,6.51-12.32.77-24.73.31-37.1.31v-.18h0Z"/>
          <path class="cls-1" d="m104.74,305.07c9.8,0,19.68-.67,29.38.32,3.98.41,10.42,4.06,10.77,6.86.78,6.18-4.62,7.77-10.64,7.83-17.55.2-35.09.98-52.64,1.51-2.59.08-5.21.29-7.78.02-5.06-.52-8.52-2.46-8.53-8.57-.01-6.03,3.72-7.54,8.29-7.66,10.37-.28,20.76-.09,31.14-.09v-.23h0Z"/>
          <path class="cls-1" d="m234.18,320.59c-9.22,0-18.45-.1-27.67.04-5.41.08-10.62-1.11-10.88-7.13-.27-6.32,4.54-8.53,10.58-8.52,18.74.04,37.48-.04,56.22-.17,5.68-.04,10.36,2.27,10.12,8.04-.24,5.68-4.96,7.59-10.7,7.38-9.21-.33-18.45-.09-27.67-.09v.45h0Z"/>
          <path class="cls-1" d="m363.45,105.02c-3.15,0-6.66.86-9.34-.25-2.78-1.15-6.39-4.05-6.65-6.51-.25-2.39,2.87-6.89,5.23-7.45,6.28-1.5,13.07-2.33,19.41-1.51,3.13.41,5.72,5.03,8.56,7.75-3.46,2.89-6.67,6.19-10.49,8.49-1.57.94-4.43-.28-6.71-.53h-.01Z"/>
          <path class="cls-1" d="m381.27,194.08c-6.26-.16-11.55-6.06-11.3-12.61.23-6.02,5.82-12.22,11.1-12.28,5.67-.07,11.72,6.43,11.76,12.63.05,6.95-5.11,12.42-11.56,12.26h0Z"/>
          <path class="cls-1" d="m20.35,182.15c-1.26,4.9-3.27,10.25-10.32,9.67-6.3-.52-10.9-4.78-9.24-10.9,1.11-4.08,5.57-8.52,9.6-10.18,4.33-1.79,10.15,5.3,9.95,11.42h.01Z"/>
          <path class="cls-1" d="m178.93,313.85c-3.82,2.79-6.65,6.2-8.21,5.69-2.48-.8-4.11-4.22-6.1-6.53,2.11-1.81,4.18-4.96,6.36-5.04,2.1-.07,4.32,3.02,7.95,5.88h0Z"/>
          <path class="cls-1" d="m325.33,95.91c-3.13,2.63-5.05,5.51-7.06,5.57-1.89.06-3.87-2.85-5.82-4.45,1.8-2.18,3.25-5.29,5.55-6.18,1.3-.5,4.01,2.66,7.32,5.07h.01Z"/>
        </g>
      </g>
    </g>
  </g>
</svg>