<?xml version="1.0" encoding="UTF-8"?>
<svg id="Layer_2" data-name="Layer 2" xmlns="http://www.w3.org/2000/svg" viewBox="0 0 375 443.4">
  <defs>
    <style>
      .cls-1 {
        fill: #094c48;
      }

      .cls-1, .cls-2 {
        stroke-width: 0px;
      }

      .cls-2 {
        fill: #77d5a7;
      }
    </style>
  </defs>
  <g id="Layer_2-2" data-name="Layer 2">
    <g id="Layer_4" data-name="Layer 4">
      <g>
        <path class="cls-1" d="m189.54,443.17c-32.43,0-64.87-.69-97.28.21-28.87.8-51-21.57-50.8-50.24.23-34.36-.19-68.73.27-103.09.12-8.95-2.16-13.09-11.65-11.85-4.37.57-9.13.92-13.26-.25-3.05-.86-7.41-4.29-7.48-6.68-.09-3.17,2.73-8.15,5.55-9.29,5.06-2.06,11.06-2.53,16.64-2.39,7.26.18,10-1.9,9.92-9.74-.31-31.49-.15-63,.31-94.49.38-26.14,5.35-51.32,18.71-74.22,17.98-30.83,44.18-51.88,77.55-64.04,34.93-12.73,70.34-12.8,105.33-1.15,18.35,6.11,35.57,15.42,48.87,30.22,9.99,11.12,19.94,22.32,29.19,34.06,15.09,19.16,20,42.03,20.52,65.63.78,34.99.44,70,.2,105-.04,6.34,1.08,9.23,8.16,8.48,5.63-.6,11.42.18,17.13.4,5.66.22,8.7,3.81,7.2,8.73-1.13,3.72-4.78,6.86-7.84,9.7-1.02.95-3.68.1-5.58.13-21.68.3-18.92-2.71-18.99,19.52-.1,32.14-.03,64.28.1,96.41.12,28.71-18.8,48.07-47.89,48.66-34.95.71-69.92.17-104.88.17v.12h0Zm-33.4-224.06c0,.18.02.36.03.54-.09-.12-.18-.23-.27-.35.16.05.33.11.49.16-12.54-15.61-13.84-32.86-7.4-51.21,7.63-21.74,23.22-37.66,39.4-53,1.36-1.29,6.9-.57,8.42,1.1,10.45,11.48,21.32,22.78,30.19,35.44,14.21,20.28,16.83,42.12,3.79,64.46-.14.23.47.9.73,1.36,38.27-18.16,56.1-75.1,30.38-114-25.4-38.41-73.81-51.16-112.61-27.69-38.2,23.12-51.2,75.37-27.61,113.66,8.17,13.26,18.53,24.94,34.45,29.52h.01Zm36.35,59.17v-.07c-41.63,0-83.26.11-124.89-.12-6.37-.03-8.98,1.48-8.92,8.42.28,34.98-.12,69.97.15,104.95.18,23.45,10.67,33.99,33.83,34,66.1.05,132.2-.07,198.3-.36,24-.11,34.2-10.44,34.28-34.36.11-34.35-.33-68.69-.05-103.04.06-7.56-2.21-9.66-9.71-9.59-40.99.35-81.99.17-122.98.17h-.01Zm132.76-81.14h.04c0-15.59.34-31.19-.13-46.77-.27-8.85-.89-17.9-3.02-26.45C304.4,52.46,226.03,8.72,154.96,30.29c-55.7,16.9-91.22,56.85-95.25,112.39-2.71,37.35-.86,75.04-.61,112.58,0,1.87,4.19,5.32,6.46,5.34,36.88.36,73.76.19,110.64.42,5.73.04,7.03-2.48,6.93-7.45-.09-4.46,1.01-8.13-6.01-9.14-56.72-8.16-93.54-60.02-83.05-116.28,8.66-46.44,48.81-80.39,96.2-81.33,46.54-.93,89.46,32.38,99.06,77.94,10.08,47.82-14.07,106.72-79.55,119.02-7.82,1.47-8.67,4.86-8.57,11.31.12,8.4,6.16,5.8,10.22,5.81,34.66.13,69.31-.26,103.97.12,8.23.09,10.22-2.79,10.02-10.43-.45-17.81-.14-35.63-.14-53.45h-.03Zm-162.36-11.68c.21,13.95,4.59,23.52,12.87,31.23,1.91,1.78,4.64,2.69,6.99,4,.39-2.38,1.05-4.75,1.13-7.14.42-12.34.1-24.75,1.36-37.01.42-4.09,4.74-7.79,7.28-11.66,2.45,3.78,5.51,7.31,7.15,11.41,1.35,3.39,1.31,7.44,1.39,11.21.2,9.2.18,18.41.1,27.62-.04,4.83,1.12,5.57,5.3,2.66,12.07-8.4,18.46-25.47,14.25-39.41-4.46-14.77-13.75-26.34-24.83-36.55-1.48-1.37-5.98-1.94-7.09-.85-13.27,13.03-25.02,27.07-25.91,44.49h0Z"/>
        <path class="cls-1" d="m156.4,219.46c-.16-.05-.33-.11-.49-.16.09.12.18.23.27.35,0-.18-.02-.36,0-.53.03,0,.23.34.23.34h0Z"/>
        <path class="cls-1" d="m174.35,385.32c.4-7.36.25-16.62-8.24-25.6-10.59-11.19-7.15-29.39,4.78-40.2,11.09-10.05,29.82-10.24,41.18-.4,12.3,10.65,14.98,27.39,4.64,39.97-6.04,7.35-7.6,14.69-7.14,23.46.37,6.98.62,14.05-.15,20.96-.25,2.27-3.56,4.83-6.05,6.04-2.06,1-4.99.22-7.53.22-14.31,0-21.48-8.15-21.49-24.45h0Z"/>
      </g>
    </g>
    <g id="Layer_4-2" data-name="Layer 4">
      <g>
        <path class="cls-2" d="m180.2,435.79c-32.43,0-64.87-.69-97.28.21-28.87.8-51-21.57-50.8-50.24.23-34.36-.19-68.73.27-103.09.12-8.95-2.16-13.09-11.65-11.85-4.37.57-9.13.92-13.26-.25-3.05-.86-7.41-4.29-7.48-6.68-.09-3.17,2.73-8.15,5.55-9.29,5.06-2.06,11.06-2.53,16.64-2.39,7.26.18,10-1.9,9.92-9.74-.31-31.49-.15-63,.31-94.49.38-26.14,5.35-51.32,18.71-74.22,17.98-30.83,44.18-51.88,77.55-64.04,34.93-12.73,70.34-12.8,105.33-1.15,18.35,6.11,35.57,15.42,48.87,30.22,9.99,11.12,19.94,22.32,29.19,34.06,15.09,19.16,20,42.03,20.52,65.63.78,34.99.44,70,.2,105-.04,6.34,1.08,9.23,8.16,8.48,5.63-.6,11.42.18,17.13.4,5.66.22,8.7,3.81,7.2,8.73-1.13,3.72-4.78,6.86-7.84,9.7-1.02.95-3.68.1-5.58.13-21.68.3-18.92-2.71-18.99,19.52-.1,32.14-.03,64.28.1,96.41.12,28.71-18.8,48.07-47.89,48.66-34.95.71-69.92.17-104.88.17v.12h0Zm-33.4-224.06c0,.18.02.36.03.54-.09-.12-.18-.23-.27-.35.16.05.33.11.49.16-12.54-15.61-13.84-32.86-7.4-51.21,7.63-21.74,23.22-37.66,39.4-53,1.36-1.29,6.9-.57,8.42,1.1,10.45,11.48,21.32,22.78,30.19,35.44,14.21,20.28,16.83,42.12,3.79,64.46-.14.23.47.9.73,1.36,38.27-18.16,56.1-75.1,30.38-114-25.4-38.41-73.81-51.16-112.61-27.69-38.2,23.12-51.2,75.37-27.61,113.66,8.17,13.26,18.53,24.94,34.45,29.52h.01Zm36.35,59.17v-.07c-41.63,0-83.26.11-124.89-.12-6.37-.03-8.98,1.48-8.92,8.42.28,34.98-.12,69.97.15,104.95.18,23.45,10.67,33.99,33.83,34,66.1.05,132.2-.07,198.3-.36,24-.11,34.2-10.44,34.28-34.36.11-34.35-.33-68.69-.05-103.04.06-7.56-2.21-9.66-9.71-9.59-40.99.35-81.99.17-122.98.17h-.01Zm132.76-81.14h.04c0-15.59.34-31.19-.13-46.77-.27-8.85-.89-17.9-3.02-26.45C295.06,45.08,216.69,1.34,145.62,22.91c-55.7,16.9-91.22,56.85-95.25,112.39-2.71,37.35-.86,75.04-.61,112.58,0,1.87,4.19,5.32,6.46,5.34,36.88.36,73.76.19,110.64.42,5.73.04,7.03-2.48,6.93-7.45-.09-4.46,1.01-8.13-6.01-9.14-56.72-8.16-93.54-60.02-83.05-116.28,8.66-46.44,48.81-80.39,96.2-81.33,46.54-.93,89.46,32.38,99.06,77.94,10.08,47.82-14.07,106.72-79.55,119.02-7.82,1.47-8.67,4.86-8.57,11.31.12,8.4,6.16,5.8,10.22,5.81,34.66.13,69.31-.26,103.97.12,8.23.09,10.22-2.79,10.02-10.43-.45-17.81-.14-35.63-.14-53.45h-.03Zm-162.36-11.68c.21,13.95,4.59,23.52,12.87,31.23,1.91,1.78,4.64,2.69,6.99,4,.39-2.38,1.05-4.75,1.13-7.14.42-12.34.1-24.75,1.36-37.01.42-4.09,4.74-7.79,7.28-11.66,2.45,3.78,5.51,7.31,7.15,11.41,1.35,3.39,1.31,7.44,1.39,11.21.2,9.2.18,18.41.1,27.62-.04,4.83,1.12,5.57,5.3,2.66,12.07-8.4,18.46-25.47,14.25-39.41-4.46-14.77-13.75-26.34-24.83-36.55-1.48-1.37-5.98-1.94-7.09-.85-13.27,13.03-25.02,27.07-25.91,44.49h0Z"/>
        <path class="cls-2" d="m147.06,212.08c-.16-.05-.33-.11-.49-.16.09.12.18.23.27.35,0-.18-.02-.36,0-.53.03,0,.23.34.23.34h0Z"/>
        <path class="cls-2" d="m165.01,377.94c.4-7.36.25-16.62-8.24-25.6-10.59-11.19-7.15-29.39,4.78-40.2,11.09-10.05,29.82-10.24,41.18-.4,12.3,10.65,14.98,27.39,4.64,39.97-6.04,7.35-7.6,14.69-7.14,23.46.37,6.98.62,14.05-.15,20.96-.25,2.27-3.56,4.83-6.05,6.04-2.06,1-4.99.22-7.53.22-14.31,0-21.48-8.15-21.49-24.45h0Z"/>
      </g>
    </g>
  </g>
</svg>