<?xml version="1.0" encoding="UTF-8"?>
<svg id="Layer_2" data-name="Layer 2" xmlns="http://www.w3.org/2000/svg" viewBox="0 0 1383.91 960.46">
  <defs>
    <style>
      .cls-1 {
        fill: #eae7c0;
      }

      .cls-1, .cls-2, .cls-3, .cls-4, .cls-5 {
        stroke-width: 0px;
      }

      .cls-2 {
        fill: #76d5a5;
      }

      .cls-3 {
        fill: #114c48;
      }

      .cls-4 {
        fill: #95a95d;
      }

      .cls-5 {
        fill: #b1f9ba;
      }
    </style>
  </defs>
  <g id="Layer_1-2" data-name="Layer 1">
    <g>
      <path class="cls-3" d="m1383.91,630.48c-20.93,17.41-34.06,47.92-51.85,68.77-20.89,24.48-44.24,46.82-69.32,66.97-24.83,19.95-51.41,37.74-79.52,52.74-12.35,6.59-70.73,23.04-73.67,35.23,51.54,24.96,104.3-11.25,153.51,23.97,13.35,9.55,45.46,37.43,43.74,55.73-2.42,25.67-55.16,27.48-73.92,26.31-28.93-1.8-53.12-14.21-69.97-37.48-6.42-8.87-7.58-15.73-17.46-20.79-14.74-7.55-36.01-7.63-51.8-14.65-11.06-4.92-23.41-16.79-35.6-18.74-14.27-2.28-37.8,8.6-51.55,11.82-36.85,8.63-74.23,15.01-111.79,19.63-140.9,17.31-289.85,17.6-430.37-3.39-125.41-18.73-252.7-68.25-345-157.68C30.89,653.22-18.3,529.14,6.34,406.64c25.54-126.99,115.74-226.14,219.92-297.64,53.28-36.57,111.42-65.52,171.62-88.85,17.79-6.9,58.78-30.36,76.51-15.08,29.07,25.03-27.18,38.59-41.31,43.69-114.62,41.39-236.75,105.21-295.48,217.41-59.21,113.12-57.07,257.45,49.2,341.35,51.5,40.66,116.11,52.54,180.34,47.96,34.17-2.44,68.23-9.18,99.95-22.34,21.76-9.03,66.18-27.18,75.42-51.2-78.43-2.1-157.33-30.04-222.02-73.53-22.48-15.11-53.46-36.42-12.11-48.42,39.75-11.53,80.15-3.17,119.03-10.37-16.34-18.61-131.45-136.89-103.46-155.22,16.34-10.7,70.45,9.95,87.55,15.01,32.29,9.55,61.76,24.12,92.35,37.74-9.79-26.63-20.08-53.13-29.41-79.93-5.49-15.79-33.79-76.4-18.24-89.93,23.82-20.72,110.74,63.08,127.65,79.42,36.24,35.01,67.74,74.75,93.18,118.25,12.24,20.94,23.06,42.71,32.4,65.09,5.59,13.4,16.54,71.9,26.34,78.09,12.67,8.01,31.31-19.53,38.21-32.15,14.03-25.67,10.76-55.42,10.68-83.63-.16-62.76-5.82-129.08,2.91-191.35,15.19-108.4,114.83-181.46,219.27-190.1,99.06-8.2,231.9,52.37,239.61,164.79,8.26,120.5-133.34,159.26-227.3,133.72-18.66-5.07-47.74-22.99-67.94-15.02-24.69,9.74-19.92,40.89-20.06,62.22-.41,62.06,6.31,128.68-7.36,189.66-5.26,23.46-13.86,46.11-25.39,67.2-11.29,20.65-37.33,40.98-44.93,61.95-6.72,18.52,6,53.89,11.21,72.2,7.72,27.11,18.73,53.18,33.62,77.16,9.92,15.98,13.16,21.36,32.16,20.86,14.92-.39,31.3-5.6,45.92-8.59,34.8-7.1,69.38-15.59,103.16-26.59,34.15-11.12,67.32-24.79,98.54-42.61,7.8-4.45,34.35-15.58,36.73-24.64,2.68-10.2-12.55-25.14-17.61-36.04-22.29-48.09-3.58-126.03,53.9-143.08,29.62-8.79,35.73,32.16,36.19,55.61.62,31.95-14.19,58.07-28.3,85.55,40.42-5.29,87.07-149.52,124.89-92.71v7.91Zm-184.38-406.07s-.26.16-.26.16c30.15-33.93-10.6-90.57-35.46-112.82-32.02-28.66-71.65-46.7-114.55-50.72-85.2-7.98-168,30.61-206.86,108.14-23.94,40.88-18.3,89.7-18.29,135.08,0,43.7.35,87.41,0,131.1-.61,77.26-54.16,136.28-129.07,152.85-28.25-1.68-56.34-5.79-84.72-5.43-5.15.06-10.8-1.4-13.68,4.92-53.94,51.22-109.52,89.05-184.3,103.27-62.7,11.92-132.96,7.61-191.96-17.78-121.86-52.45-177.09-180.67-158.26-307.82-21.81,2.83-22.48,97.01-22.04,113.35,1.14,42.97,10.62,84.74,31.69,122.47,2.36,7.78,5.64,15.1,10.8,21.47,38.72,73.39,96.24,124.37,176.93,147.31,61.23,17.41,124.21,17.46,187.1,17.72,30.89.13,32.97-3.66,19.12-32.12-.19-.39-.32-.82-.48-1.23-.59-13.54-6.04-32.89,11.15-38.43,20.81-6.71,26.92,19.27,31.05,33.44-3.87,19.17,12.6,46.83,34.56,30.92,11.44-8.29,7.15-17.3,2.6-31.39-3.55-36.52,33.68-48.42,40.12-10.01,1.93,16.65,3.91,48.09,29.5,30.39,13.38-9.26,8.15-19.73,3.92-35.62-.59-11.32-.63-22.55,13.46-26.07,12.07-3.02,20.96,1.21,25.88,12.93-.71,9.35,2.33,18.25,3.25,27.4.68,6.87,3.24,9.03,10.24,6.13,12.57-5.21,25.61-9.29,38.19-14.47,32.71-13.48,32.69-13.71,22.5-48.18-3.95-17.43-17.47-46.58,5.88-55.52,28.14-10.77,16.05,19.56,31.1,24.08-6,11.55,2.21,21.88,2.82,32.86.49,8.78,3.27,10.63,10.89,4.84,63.58-48.3,103.72-109.91,109.58-191.19,1.76-35.06,1.35-70.13.19-105.19.04-22.09.07-44.17.11-66.26.14-2.49.29-4.98.43-7.47,3.83-30.41,22.6-48.74,49.2-60.74,48.55-13.08,101.05,24.03,151.38,21.25,43.46-2.4,86.86-19.37,105.65-61.22.6-.69.8-1.49.62-2.39Zm-542.06,293.16c.5,1.13,1,2.25,1.5,3.38,2.13-1.11,1.9-2.45-.7-4.02-74.71-84.3-162.77-147.73-273.64-176.14-3.42,12.35,37.56,48.6,46.42,58.98,16.7,19.55,34.64,46.89,59.12,57.61,25.57,11.2,57.14,14.65,83.76,24.29,28.51,10.32,56.17,22.85,83.53,35.91Zm-154.85-283.15c0,24.07,16.84,52.68,24.98,75.32,9.08,25.27,14.29,51.11,33.97,70.14,22.21,21.47,49.98,37.97,72.79,59.24,11.85,11.05,39.91,53.36,55.5,53.25-36.43-104.48-100.29-188-187.23-257.94Zm243.95,531.16c-17.23,7.8-74.09,16.94-79.83,32.72-6.86,18.84,25.41,67.2,41.32,73.09,13.83,5.12,44.02-.68,59-1.38,18.46-.86,20.01,3.45,20.13-10.26.08-9.83-19.67-34.9-23.98-45.25-6.62-15.91-11.8-32.41-16.65-48.93Zm-394.36-276.39c45.69,23.4,91.44,39.24,139.62,48.03,31.41,5.73,133.4,12.41,142.6,9.24-88.84-41.7-180.9-66.11-282.22-57.28Zm467.08,229.24c-9.1,6.36-32.26,17.51-35.69,28.58-4.31,13.94,10.72,42.88,16.18,55.75,14.89,35.06,27.24,75.51,72.15,59.14-30.36-43.02-46.07-90.84-52.65-143.47Zm-312.93,143.49c-6.14-9.83-12.21-17.48-14.84-26.73-2.4-8.46-7.56-9.89-15.68-9.52-38.16,1.75-76.33,2.58-114.4-2.01-3.96-.48-8.31-1.65-14.63,2.35,52.48,19.23,104.52,28.88,159.55,35.91Zm133.54,10.37c21.39.03,11.25-9.03,4.42-23.9-5.11-11.12-9.49-38.78-20.44-42.44-46.1-15.41-10.17,73.74,16.03,66.34Zm-55.84-2.31c-7.96-12.13-12.07-31.77-20.77-42.47-10.14-12.47-16.65-7.95-34.48-5.83,4.19,12.67,11.88,26.03,21.31,35.57,12.6,12.73,17.74,8.1,33.94,12.73Zm645.08-177.35c17.67-22.51,24.31-47.52,19.21-76.4-27.45,29.08-33.75,54.54-19.21,76.4Zm5.85,231.28c41.6,0,.36-26.64-20.77-29.42-40.76-5.37-2.89,31.6,20.77,29.42Z"/>
      <path class="cls-2" d="m584.73,738.85c-6.44-38.42-43.66-26.52-40.12,10.01-12.38.16-24.77.32-37.15.47-4.12-14.17-10.24-40.15-31.05-33.44-17.18,5.54-11.73,24.89-11.15,38.43-143.93,10.33-278.57-21.88-377.36-131.72-2.32-9.44-7.38-16.82-16.12-21.43-21.07-37.72-30.55-79.49-31.69-122.46-.43-16.34.23-110.52,22.04-113.35-18.83,127.15,36.39,255.36,158.26,307.82,58.99,25.39,129.26,29.69,191.96,17.78,74.77-14.21,130.36-52.05,184.3-103.27,5.21,7.86,92.06,8.23,98.4.51,74.91-16.57,128.46-75.58,129.07-152.85.34-43.69,0-87.41,0-131.1,0-45.38-5.66-94.2,18.29-135.08,8.31-1.18,11.92-8.55,17.3-13.43,44.18-40.15,95.6-63.73,155.69-62.75,49.54.81,94.48,19.93,137.79,42.64,2.45,1.29,3.75,3.62,3.93,6.46-27.45-4.45-70.46,21.77-41.26,50.85,32.55,32.42,64.52-11.88,48.89-45.04,5.23-.53,7.94,3.34,10.72,6.56,17.4,20.13,24.7,43.75,23.8,70.11,0,0,.26-.16.26-.15-.38.18-1.08.37-1.07.52.03.63.28,1.24.44,1.86-18.8,41.86-62.2,58.82-105.65,61.22-50.33,2.78-102.83-34.33-151.38-21.25-102.99-47.83-81.05,124.88-80.74,179.3.41,71.15-16.13,181.7-92.49,213.85-15.05-4.52-2.96-34.85-31.1-24.08-23.35,8.94-9.83,38.09-5.88,55.52-5.21,2.23-10.5,4.29-15.62,6.71-18.95,8.97-37.74,18.3-58.55,22.42-4.92-11.72-13.8-15.95-25.88-12.93-14.09,3.52-14.05,14.76-13.46,26.07-11.62-1.3-22.61,1.39-33.43,5.23Zm505.94-471.99c15.54.06,56.55,4.69,64.23-15.64,10.3-27.28-42.26-18.86-54.09-18.78-15.43.11-54.52-14.11-59.54,4.14-7.08,25.77,34.34,30.04,49.39,30.28Zm-70.29-94.4c.42-43.97-66.23-41.42-66.46.71-.24,43.7,66.04,43.79,66.46-.71Z"/>
      <path class="cls-1" d="m768.64,659.91c76.36-32.14,92.9-142.7,92.49-213.85-.32-54.42-22.25-227.13,80.74-179.3-26.59,12-45.37,30.33-49.19,60.73-2.26,2.36-2.53,4.85-.43,7.47-.04,22.09-.07,44.17-.11,66.25-2.52,35.06-2.17,70.13-.19,105.2-5.87,81.28-46,142.88-109.58,191.19-7.62,5.79-10.41,3.94-10.89-4.84-.61-10.98-8.82-21.31-2.82-32.86Z"/>
      <path class="cls-4" d="m657.45,517.58c-27.34-13.06-55-25.6-83.51-35.92-26.62-9.63-58.18-13.08-83.76-24.29-24.48-10.72-42.42-38.06-59.12-57.61-8.86-10.38-49.84-46.63-46.42-58.98,110.87,28.41,198.93,91.84,273.64,176.14l-.82.66Z"/>
      <path class="cls-1" d="m87.91,622.6c98.79,109.85,233.42,142.06,377.36,131.72.16.41.29.83.48,1.23,13.85,28.47,11.76,32.25-19.12,32.12-62.89-.26-125.88-.31-187.1-17.72-80.69-22.94-138.21-73.92-176.93-147.31,1.77-.02,3.55-.03,5.32-.04Z"/>
      <path class="cls-5" d="m1157.12,142.08c-.17-2.84-1.48-5.17-3.93-6.46-43.31-22.71-88.25-41.83-137.79-42.64-60.09-.98-111.51,22.6-155.69,62.75-5.38,4.89-8.98,12.25-17.3,13.43,38.86-77.53,121.66-116.12,206.86-108.14,42.9,4.02,82.52,22.06,114.55,50.72,24.85,22.25,65.6,78.89,35.46,112.82.89-26.36-6.4-49.99-23.81-70.11-2.79-3.22-5.49-7.1-10.72-6.56-2.54-1.94-5.08-3.87-7.63-5.81Z"/>
      <path class="cls-4" d="m502.61,234.42c86.94,69.95,150.8,153.46,187.23,257.94-15.58.11-43.64-42.2-55.5-53.25-22.81-21.27-50.58-37.76-72.79-59.24-19.68-19.03-24.89-44.87-33.97-70.14-8.14-22.64-24.98-51.24-24.98-75.32Z"/>
      <path class="cls-4" d="m352.2,489.18c101.32-8.83,193.38,15.58,282.22,57.28-9.2,3.16-111.19-3.52-142.6-9.24-48.18-8.79-93.93-24.63-139.62-48.03Z"/>
      <path class="cls-1" d="m657.49,720.48c20.81-4.11,39.6-13.45,58.55-22.42,5.12-2.42,10.41-4.48,15.62-6.71,10.19,34.46,10.2,34.7-22.5,48.18-12.58,5.19-25.62,9.27-38.19,14.47-7,2.9-9.55.74-10.24-6.13-.91-9.15-3.96-18.05-3.25-27.4Z"/>
      <path class="cls-1" d="m584.73,738.85c10.81-3.85,21.81-6.53,33.43-5.23,4.23,15.89,9.46,26.37-3.92,35.63-25.59,17.7-27.58-13.74-29.5-30.39Z"/>
      <path class="cls-4" d="m1229.13,692.62c-14.54-21.86-8.25-47.32,19.21-76.4,5.11,28.88-1.54,53.89-19.21,76.4Z"/>
      <path class="cls-1" d="m507.46,749.33c12.39-.16,24.77-.31,37.15-.47,4.55,14.1,8.84,23.1-2.6,31.39-21.95,15.91-38.43-11.74-34.56-30.92Z"/>
      <path class="cls-4" d="m1234.98,923.91c-23.65,2.18-61.52-34.79-20.77-29.42,21.13,2.78,62.36,29.42,20.77,29.42Z"/>
      <path class="cls-5" d="m695.05,588.2c-6.34,7.72-93.19,7.34-98.4-.51,2.88-6.32,8.52-4.85,13.68-4.91,28.38-.36,56.47,3.75,84.72,5.43Z"/>
      <path class="cls-2" d="m891.94,506.42c-1.97-35.07-2.32-70.14.19-105.2,1.15,35.07,1.57,70.14-.19,105.2Z"/>
      <path class="cls-5" d="m87.91,622.6c-1.77.01-3.55.03-5.32.04-5.16-6.38-8.44-13.69-10.8-21.47,8.74,4.61,13.8,11.99,16.12,21.43Z"/>
      <path class="cls-2" d="m892.24,334.97c-2.09-2.62-1.83-5.11.43-7.47-.14,2.49-.29,4.98-.43,7.47Z"/>
      <path class="cls-4" d="m658.27,516.92c2.59,1.57,2.82,2.92.7,4.02-.5-1.13-1-2.25-1.51-3.37,0,0,.81-.65.81-.65Z"/>
      <path class="cls-5" d="m1198.9,226.8c-.17-.62-.42-1.24-.44-1.86,0-.16.69-.35,1.07-.52.18.9-.03,1.69-.62,2.38Z"/>
      <path class="cls-3" d="m1090.67,266.86c-15.05-.24-56.47-4.51-49.39-30.28,5.02-18.25,44.11-4.03,59.54-4.14,11.83-.08,64.39-8.51,54.09,18.78-7.68,20.33-48.69,15.7-64.23,15.64Z"/>
      <path class="cls-3" d="m1020.38,172.46c-.42,44.5-66.7,44.41-66.46.71.23-42.13,66.88-44.68,66.46-.71Z"/>
      <path class="cls-3" d="m1157.12,142.08c2.54,1.94,5.08,3.87,7.63,5.81,15.63,33.16-16.34,77.46-48.89,45.04-29.2-29.08,13.81-55.3,41.26-50.85Z"/>
    </g>
  </g>
</svg>